<?xml version="1.0" encoding="utf-8"?>
<!-- Generator: Adobe Illustrator 26.4.1, SVG Export Plug-In . SVG Version: 6.00 Build 0)  -->
<svg version="1.1" id="Layer_1" xmlns="http://www.w3.org/2000/svg" xmlns:xlink="http://www.w3.org/1999/xlink" x="0px" y="0px"
	 viewBox="0 0 320.9 159.4" style="enable-background:new 0 0 320.9 159.4;" xml:space="preserve">
<path d="M65.7,119.1V118c0.5,0,1.1-0.1,1.6-0.2c0.9-0.2,1.8-0.4,2.7-0.8c0.9-0.4,1.7-0.9,2.5-1.6c0.7-0.7,1.1-1.6,1.1-2.6
	c-0.1-1.1-0.3-2.2-0.6-3.3c-0.4-1.5-1-3.4-1.7-5.6s-1.6-4.7-2.6-7.3s-2-5.5-3.1-8.4H35.7c-1.1,2.8-2.2,5.5-3.2,8.1s-2.1,5.2-3.1,7.8
	c-1.6,4-2.4,6.8-2.4,8.5c0,0.9,0.3,1.8,0.9,2.4c0.7,0.7,1.4,1.2,2.3,1.6c1,0.4,2,0.7,3,0.9c1.1,0.2,2.1,0.4,3.1,0.5v1.1H12.4v-1.2
	c1.8-0.2,3.5-0.7,5-1.6c0.9-0.4,1.7-1,2.4-1.7c1-1.1,1.8-2.4,2.6-3.7c1.6-2.8,3.1-5.7,4.4-8.6c1.6-3.5,3.3-7.5,5.3-12l6-13.8
	c2-4.7,4.1-9.5,6.1-14.3s3.9-9.3,5.7-13.5l-1.1-2.5c1.3-0.6,2.5-1.3,3.6-2.2c1-0.8,2-1.6,2.9-2.6c0.8-0.8,1.4-1.7,2.1-2.6
	c0.6-0.8,1-1.5,1.3-2h0.9c2.3,6.2,4.5,12.1,6.6,17.6c2.1,5.6,4.1,10.9,6,16.1s3.8,10.2,5.6,15c1.8,4.8,3.6,9.6,5.4,14.3
	c0.8,2.3,1.6,4.2,2.3,5.8l2.4,5.2c0.3,0.5,0.6,1.1,1,1.6c0.6,0.8,1.3,1.6,2.1,2.3c1,0.9,2,1.6,3.2,2.1c1.4,0.6,2.9,1,4.5,1v1.3
	L65.7,119.1z M51,51.2c-0.4,1-1.1,2.5-2,4.6s-1.9,4.6-3.2,7.6c-1.3,3-2.7,6.4-4.2,10.1l-5,12.3h27.9c-1.3-3.3-2.6-6.7-3.9-10.1
	c-1.3-3.4-2.6-6.6-3.8-9.7s-2.3-5.9-3.4-8.5S51.7,52.8,51,51.2z"/>
<path d="M129,119.1c-0.7-0.7-1.2-1.2-1.4-1.5s-0.6-0.7-1-1.2c-0.5-0.6-1-1.3-1.4-2c-0.6-0.9-1.4-2.1-2.6-3.9c-1.4-2.1-2.7-4-3.8-5.7
	s-2.2-3.4-3.3-5c-1.1-1.7-2.3-3.3-3.6-5s-2.9-3.6-4.7-5.7c-1.5-1.7-3.1-3.3-4.9-4.8c-1.6-1.4-3.5-2.4-5.5-2.8
	c-1.1-0.3-2.2-0.4-3.2-0.4c-0.7,0-1.5,0-2.6-0.1v12.7c0,3.6,0,6.6,0.1,9.1s0.2,4.5,0.2,6.2c0,1.5,0.4,3,1.2,4.2
	c0.9,1.3,2.1,2.3,3.5,3c2.2,1.1,4.7,1.7,7.2,1.7v1.1h-36v-1c1.8-0.3,3.6-0.7,5.4-1.3c1.6-0.5,2.9-1.4,4-2.7c0.4-0.6,0.7-1.3,0.9-2
	c0.2-1,0.4-2,0.5-3c0.1-1.1,0.2-2.3,0.3-3.6s0.1-2.5,0.1-3.7s0-2.5,0.1-4.3s0.1-3.8,0.1-5.9s0.1-4.3,0.1-6.6V56.6
	c0-1.3,0-2.7-0.1-4.1s-0.1-2.7-0.2-3.9c-0.1-1.1-0.3-2.3-0.6-3.4c-0.2-0.8-0.5-1.6-1-2.2c-1-1.1-2.3-1.9-3.8-2.4
	c-1.7-0.5-3.4-0.8-5.1-1.1v-1.1h4.6c2.5,0,5.4,0,8.6-0.1s6.4,0,9.6,0h7.8c5,0,9.4,0.1,13.3,0.4c3.7,0.2,7.3,1.3,10.6,3
	c3.2,1.6,6,4,8,7c2.1,3.3,3.2,7.2,3,11.1c0,2.6-0.5,5.1-1.6,7.5c-1,2.2-2.3,4.1-4,5.8c-1.7,1.7-3.7,3.2-5.9,4.3
	c-2.3,1.2-4.6,2.2-7.1,3v0.3c1.4,0.8,2.6,1.7,3.7,2.9c1.3,1.3,2.4,2.8,3.5,4.2c1.9,2.8,4.1,5.9,6.3,9.2c2.3,3.3,4.3,6.2,6.1,8.7
	c2.2,3.3,4.9,6.2,8.1,8.5c2.8,1.8,5.9,3,9.2,3.5v1.1L129,119.1z M117.9,49.3c-2-3-4.9-5.4-8.2-6.9c-1.8-0.8-3.7-1.4-5.7-1.8
	c-2-0.4-4.1-0.6-6.2-0.6c-1.6,0-2.8,0-3.8,0.1s-1.7,0.2-2.2,0.2c-0.1,0.5-0.2,0.8-0.2,1.2c-0.1,0.4-0.1,0.9-0.2,1.3
	c0,0.5-0.1,1.2-0.1,2.2s-0.1,2.3-0.2,4c-0.1,2.6-0.1,5.6-0.2,8.8s-0.1,6.5-0.1,9.5v12.3c3.1,0,5.9-0.1,8.6-0.4
	c2.6-0.3,5.2-0.8,7.7-1.6c2.2-0.6,4.3-1.7,6.2-3c1.6-1.2,3.1-2.6,4.2-4.3c1.1-1.6,1.9-3.4,2.4-5.2c0.5-1.9,0.8-3.9,0.8-5.8
	C120.7,55.8,119.8,52.3,117.9,49.3z"/>
<path d="M199.2,57.8c-2.7-3.4-5.6-6.7-8.7-9.7c-2.4-2.4-5.1-4.4-8.1-5.9c-2.2-0.8-4.5-1.3-6.9-1.5c-3.8-0.4-7.7-0.6-11.6-0.6
	c-0.8,0-1.6,0-2.6,0l-2.8,0.1l-2.5,0.1c-0.8,0-1.4,0-1.7,0c-0.1,0.5-0.2,0.9-0.3,1.3c-0.1,0.5-0.2,1-0.3,1.6s-0.2,1.4-0.2,2.3
	s-0.1,2.1-0.2,3.4c-0.1,2.6-0.1,5.5-0.2,8.6s-0.1,6-0.1,8.8V77h2c1.2,0,2.5,0,4-0.1s3-0.2,4.5-0.3c1.3-0.1,2.6-0.2,3.9-0.5
	c2.2-0.4,4.4-1.2,6.4-2.3c1.5-0.9,2.7-2.1,3.7-3.5c0.9-1.3,1.5-2.9,1.9-4.4c0.4-1.6,0.7-3.3,1-5.2h1.4v36h-1.4
	c-0.7-2.6-1.5-5.1-2.6-7.6c-0.9-2.3-2.2-4.4-4-6.1c-1.3-1.2-2.9-2.2-4.5-2.8c-1.8-0.7-3.7-1.1-5.7-1.2l-2.9-0.2c-0.8,0-1.6,0-2.4,0
	H153v13.8c0,2.1,0,4,0.1,5.8c0,1.8,0.1,3.3,0.1,4.5c0.1,2.4,0.2,4.6,0.4,6.8c0,1.7,0.5,3.3,1.3,4.8c0.8,1.2,2,2,3.4,2.4
	c2.3,0.7,4.6,1,7,1.1v1.1h-35.8V118c1.8-0.3,3.5-0.8,5.2-1.5c1.5-0.6,2.9-1.6,4-2.8c0.4-0.6,0.7-1.3,0.9-2c0.2-0.9,0.4-1.8,0.6-3
	s0.3-2.3,0.4-3.5s0.1-2.4,0.1-3.6s0-2.5,0.1-4.3s0.1-3.8,0.1-5.9s0.1-4.3,0.1-6.6V56.6c0-1.3,0-2.7-0.1-4.1c0-1.4-0.1-2.8-0.2-4
	c-0.1-1.2-0.3-2.3-0.6-3.4c-0.2-0.8-0.5-1.6-1.1-2.2c-1-1.1-2.2-1.9-3.6-2.3c-1.6-0.4-3.3-0.7-4.9-1v-1.1h62.3l7.6,18.8L199.2,57.8z
	"/>
<path d="M220.3,119.1V118c0.5,0,1.1-0.1,1.6-0.2c0.9-0.2,1.8-0.4,2.7-0.8s1.7-0.9,2.5-1.6c0.7-0.7,1.1-1.6,1.1-2.6
	c-0.1-1.1-0.3-2.2-0.6-3.3c-0.4-1.5-1-3.4-1.7-5.6s-1.6-4.7-2.6-7.3s-2-5.5-3.1-8.4h-29.8c-1.1,2.8-2.2,5.5-3.2,8.1
	s-2.1,5.2-3.1,7.8c-1.6,4-2.4,6.8-2.4,8.5c0,0.9,0.3,1.8,0.9,2.4c0.7,0.7,1.4,1.2,2.3,1.6c1,0.4,2,0.7,3,0.9
	c1.1,0.2,2.1,0.4,3.1,0.5v1.1h-24v-1.2c1.8-0.2,3.5-0.7,5-1.6c0.9-0.4,1.7-1,2.4-1.7c1-1.1,1.8-2.4,2.6-3.7c1.6-2.8,3.1-5.7,4.4-8.6
	c1.6-3.5,3.3-7.5,5.3-12l6-13.8c2.1-4.7,4.1-9.5,6.1-14.3s3.9-9.3,5.7-13.5l-1.1-2.5c1.3-0.6,2.6-1.3,3.7-2.2c1-0.8,2-1.6,2.9-2.6
	c0.8-0.8,1.4-1.7,2.1-2.6c0.6-0.8,1-1.5,1.3-2h0.9c2.3,6.2,4.5,12.1,6.6,17.6c2.1,5.6,4.1,10.9,6,16.1s3.8,10.2,5.6,15
	s3.6,9.6,5.4,14.3c0.8,2.3,1.6,4.2,2.3,5.8l2.4,5.2c0.3,0.5,0.6,1.1,1,1.6c0.6,0.8,1.3,1.6,2.1,2.3c1,0.9,2,1.6,3.2,2.1
	c1.4,0.6,2.9,1,4.5,1v1.3L220.3,119.1z M205.7,51.2c-0.4,1-1.1,2.5-2,4.6s-1.9,4.6-3.2,7.6c-1.3,3-2.7,6.4-4.2,10.1l-5,12.3h27.9
	c-1.3-3.3-2.6-6.7-3.9-10.1c-1.3-3.4-2.6-6.6-3.8-9.7s-2.4-5.9-3.4-8.5S206.3,52.8,205.7,51.2z"/>
<path d="M293.8,119.1h-67.5l-0.4-0.8l56.7-77.8h-14.1c-2.7,0-5.2,0-7.7,0.1s-4.4,0.1-5.8,0.2c-2.6,0.1-5.2,0.7-7.7,1.7
	c-2.2,0.9-4.3,2.2-6.2,3.7c-0.9,0.8-2,1.8-3.3,3.1s-2.6,2.8-4,4.3s-2.6,3.2-3.9,4.8c-1.1,1.4-2.1,2.9-3.1,4.4l-1.2-0.5l8.2-23.9
	c1.1,0.1,2.9,0.1,5.7,0.2l9.9,0.1c3.8,0,7.9,0,12.3,0h35.8l0.3,0.7L241.3,117c3.7,0.1,7.1,0.1,10.1,0.1h9.1c1.3,0,2.9,0,4.9-0.1
	s4-0.2,6.2-0.4c6.1-0.7,11.8-3.2,16.3-7.3c5.1-4.6,9.5-9.9,12.8-15.9l1.2,0.4L293.8,119.1z"/>
<polygon points="214.6,123.1 216.4,123 216.4,124.2 214.6,124.2 "/>
</svg>
