<svg id="Layer_1" data-name="Layer 1" xmlns="http://www.w3.org/2000/svg" viewBox="0 0 32 32"><defs><style>.cls-1{fill:#f2994a;}.cls-2{fill:#ff86dd;}.cls-3{fill:#16edb3;}.cls-4{fill:#eb5757;}.cls-5{fill:#f2c94c;}.cls-6{fill:#27ae60;}.cls-7{fill:#18e4ed;}.cls-8{fill:#2f80ed;}.cls-9{fill:#6fcf97;}</style></defs><rect class="cls-1" x="21.38" y="21.26" width="10.64" height="10.68"/><rect class="cls-2" x="10.7" y="0.03" width="10.7" height="10.62"/><rect class="cls-3" y="-0.01" width="10.7" height="10.64"/><path class="cls-4" d="M26.67,0h0A5.34,5.34,0,0,1,32,5.33h0a5.34,5.34,0,0,1-5.31,5.31h0a5.34,5.34,0,0,1-5.3-5.31h0A5.21,5.21,0,0,1,26.67,0Z"/><rect class="cls-5" x="21.38" y="10.65" width="10.62" height="10.64"/><path class="cls-6" d="M5.38,10.63h0A5.38,5.38,0,0,1,10.72,16h0a5.38,5.38,0,0,1-5.34,5.35h0A5.38,5.38,0,0,1,0,16H0A5.38,5.38,0,0,1,5.38,10.63Z"/><rect class="cls-7" y="21.31" width="10.7" height="10.7"/><rect class="cls-8" x="10.71" y="10.65" width="10.65" height="10.63"/><path class="cls-9" d="M16,21.29h0a5.36,5.36,0,0,1,5.33,5.33h0A5.36,5.36,0,0,1,16,32h0a5.37,5.37,0,0,1-5.33-5.33h0A5.37,5.37,0,0,1,16,21.29Z"/></svg>