<svg id="Layer_1" data-name="Layer 1" xmlns="http://www.w3.org/2000/svg" viewBox="0 0 33.16 33.16"><defs><style>.cls-1{fill:#124fff;}.cls-2{fill:#2f80ed;}.cls-3{fill:#f2c94c;}.cls-4{fill:#ff86dd;}.cls-5{fill:#f2994a;}.cls-6{fill:#eb5757;}.cls-7{fill:#18e4ed;}</style></defs><path class="cls-1" d="M1,24.27H9.06a0,0,0,0,1,0,0v7a0,0,0,0,1,0,0H4.65A3.68,3.68,0,0,1,1,27.62V24.27A0,0,0,0,1,1,24.27Z"/><rect class="cls-1" x="0.97" y="16.67" width="15.51" height="7.03"/><rect class="cls-1" x="0.97" y="9.08" width="7.76" height="7.03"/><path class="cls-1" d="M5.17,1.48H16.09a0,0,0,0,1,0,0v7a0,0,0,0,1,0,0H1a0,0,0,0,1,0,0V5.68A4.2,4.2,0,0,1,5.17,1.48Z"/><path class="cls-2" d="M31.52,8.49h-7v-7H28.4a3.12,3.12,0,0,1,3.12,3.12Z"/><rect class="cls-3" x="17" y="23.91" width="7.04" height="7.04" rx="3.52"/><polyline class="cls-4" points="17.04 23.58 17.04 16.58 24.04 16.58"/><rect class="cls-5" x="9.32" y="9.12" width="7.04" height="7.04" rx="3.52"/><polygon class="cls-6" points="31.54 12.43 24.55 8.93 24.55 15.92 31.54 12.43"/><rect class="cls-5" x="9.51" y="24.23" width="7" height="7"/><rect class="cls-7" x="16.97" y="8.97" width="7" height="7"/><polyline class="cls-4" points="23.95 1.49 23.95 8.49 16.95 8.49"/><path class="cls-2" d="M24.55,24.27h7a0,0,0,0,1,0,0v4.48A2.54,2.54,0,0,1,29,31.3H24.55a0,0,0,0,1,0,0v-7A0,0,0,0,1,24.55,24.27Z"/><rect class="cls-2" x="25.08" y="16.56" width="6.44" height="7.03"/><polyline class="cls-1" points="16.09 8.5 16.09 1.48 23.21 1.48"/><polyline class="cls-2" points="25.08 16.56 25.08 23.59 18.11 23.59"/><rect class="cls-2" x="24.59" y="17.12" width="1.45" height="6.43"/><rect class="cls-1" x="15.38" y="1.53" width="1.16" height="6.47"/><rect class="cls-1" x="15.67" y="7.47" width="1.16" height="0.72" transform="translate(-0.78 13.78) rotate(-45)"/><rect class="cls-2" x="24.37" y="16.87" width="1.16" height="0.72" transform="translate(-4.88 22.69) rotate(-45)"/></svg>