<svg id="Layer_1" data-name="Layer 1" xmlns="http://www.w3.org/2000/svg" viewBox="0 0 33.16 33.16"><defs><style>.cls-1{fill:#18e4ed;}.cls-2{fill:#f2994a;}.cls-3{fill:#124fff;}.cls-4{fill:#eb5757;}.cls-5{fill:#ca2f62;}.cls-6{fill:#f2c94c;}.cls-7{fill:#28a0f0;}.cls-8{fill:#e52dbc;}.cls-9{fill:#684dd9;}</style></defs><path class="cls-1" d="M19.69,24.26H32.16a0,0,0,0,1,0,0v4.48a2.54,2.54,0,0,1-2.54,2.54H19.69a0,0,0,0,1,0,0v-7A0,0,0,0,1,19.69,24.26Z"/><rect class="cls-2" x="18.15" y="9.07" width="14" height="7.03"/><path class="cls-3" d="M1,24.27H11.89a0,0,0,0,1,0,0v7a0,0,0,0,1,0,0H3.49A2.49,2.49,0,0,1,1,28.81V24.27A0,0,0,0,1,1,24.27Z"/><rect class="cls-3" x="0.97" y="16.67" width="16.64" height="7.03"/><rect class="cls-3" x="0.97" y="9.08" width="8.4" height="7.03"/><path class="cls-3" d="M4.55,1.58H15.49a0,0,0,0,1,0,0v7a0,0,0,0,1,0,0H1a0,0,0,0,1,0,0V5.13A3.55,3.55,0,0,1,4.55,1.58Z"/><path class="cls-4" d="M23.87,1.58h4.42a3.87,3.87,0,0,1,3.87,3.87V8.61a0,0,0,0,1,0,0H23.87a0,0,0,0,1,0,0v-7A0,0,0,0,1,23.87,1.58Z"/><rect class="cls-5" x="12.29" y="24.26" width="7.02" height="7.02" rx="3.51"/><rect class="cls-6" x="16.15" y="1.57" width="7.02" height="7.02" rx="3.51"/><polygon class="cls-7" points="13.75 9.09 9.71 16.07 17.79 16.07 13.75 9.09"/><polyline class="cls-8" points="18.14 23.69 18.14 16.69 25.14 16.69"/><rect class="cls-9" x="25.52" y="16.67" width="6.57" height="7.03"/></svg>