<svg id="Layer_1" data-name="Layer 1" xmlns="http://www.w3.org/2000/svg" viewBox="0 0 172.77 33.16"><defs><style>.cls-1{fill:#124fff;}.cls-2{fill:#f2c94c;}.cls-3{fill:#ff86dd;}.cls-4{fill:#f2994a;}.cls-5{fill:#eb5757;}.cls-6{fill:#18e4ed;}.cls-7{fill:#2f80ed;}</style></defs><path class="cls-1" d="M1,24.42H9.06a0,0,0,0,1,0,0v7a0,0,0,0,1,0,0H3.67A2.7,2.7,0,0,1,1,28.75V24.42A0,0,0,0,1,1,24.42Z"/><rect class="cls-1" x="0.97" y="16.9" width="15.51" height="7.03"/><rect class="cls-1" x="0.97" y="9.08" width="7.76" height="7.03"/><path class="cls-1" d="M4.27,1.48H16.09a0,0,0,0,1,0,0v7a0,0,0,0,1,0,0H1a0,0,0,0,1,0,0V4.78A3.3,3.3,0,0,1,4.27,1.48Z"/><rect class="cls-2" x="17" y="24.25" width="7.04" height="7.04" rx="3.52"/><polyline class="cls-3" points="17.04 23.8 17.04 16.8 24.04 16.8"/><rect class="cls-4" x="9.32" y="9.12" width="7.04" height="7.04" rx="3.52"/><polygon class="cls-5" points="105.63 12.65 98.64 9.16 98.64 16.15 105.63 12.65"/><rect class="cls-4" x="9.51" y="24.38" width="7" height="7"/><rect class="cls-6" x="16.97" y="9.2" width="7" height="7"/><polyline class="cls-3" points="23.95 1.49 23.95 8.49 16.95 8.49"/><path class="cls-7" d="M24.94,24.42H170.4a0,0,0,0,1,0,0v4.2a2.83,2.83,0,0,1-2.83,2.83H24.94a0,0,0,0,1,0,0v-7A0,0,0,0,1,24.94,24.42Z"/><rect class="cls-7" x="25.2" y="16.71" width="145.21" height="7.03"/><polyline class="cls-1" points="16.09 8.5 16.09 1.48 23.21 1.48"/><polyline class="cls-7" points="25.08 16.71 25.08 23.74 18.11 23.74"/><rect class="cls-7" x="24.59" y="17.27" width="1.45" height="6.43"/><rect class="cls-1" x="15.38" y="1.53" width="1.16" height="6.47"/><rect class="cls-1" x="15.67" y="7.47" width="1.16" height="0.72" transform="translate(-0.78 13.78) rotate(-45)"/><rect class="cls-7" x="24.37" y="17.03" width="1.16" height="0.72" transform="translate(-4.99 22.73) rotate(-45)"/><path class="cls-7" d="M24.64,1.47H168a2.33,2.33,0,0,1,2.33,2.33v4.7a0,0,0,0,1,0,0H24.64a0,0,0,0,1,0,0v-7A0,0,0,0,1,24.64,1.47Z"/><path class="cls-5" d="M107.54,11.25v-1h.81v1h.74v.59h-.74v2a.53.53,0,0,0,.09.37.49.49,0,0,0,.35.09h.29v.62h-.6a1.06,1.06,0,0,1-.76-.19,1.18,1.18,0,0,1-.18-.77V11.84H107v-.59Z"/><path class="cls-5" d="M110.56,10v1.79a1.16,1.16,0,0,1,1.11-.59c.84,0,1.25.48,1.25,1.45v2.3h-.81V12.81c0-.14,0-.27,0-.37a1.71,1.71,0,0,0-.09-.3.49.49,0,0,0-.22-.23.78.78,0,0,0-.37-.08c-.57,0-.85.38-.85,1.14v1.95h-.82V10Z"/><path class="cls-5" d="M117.09,13.32h-2.74a1.14,1.14,0,0,0,.33.75,1,1,0,0,0,.67.27.86.86,0,0,0,.9-.52h.8a1.59,1.59,0,0,1-.57.84,1.67,1.67,0,0,1-1.1.35,1.69,1.69,0,0,1-1.35-.56,2,2,0,0,1-.51-1.39A1.88,1.88,0,0,1,114,11.7a1.7,1.7,0,0,1,1.3-.53,1.61,1.61,0,0,1,1.33.61A2.18,2.18,0,0,1,117.09,13.32Zm-1.76-1.52a1,1,0,0,0-.63.23,1,1,0,0,0-.35.69h1.91a.94.94,0,0,0-.28-.67A1,1,0,0,0,115.33,11.8Z"/><path class="cls-5" d="M120.47,15a1.55,1.55,0,0,1-1-.3,1,1,0,0,1-.38-.8.87.87,0,0,1,.09-.4.85.85,0,0,1,.26-.31,2.88,2.88,0,0,1,.38-.22,3.45,3.45,0,0,1,.51-.16c.21-.05.4-.08.59-.11l.65-.08v-.07c0-.55-.26-.82-.77-.82a.79.79,0,0,0-.52.17.68.68,0,0,0-.22.49h-.8a1.27,1.27,0,0,1,.48-.91,1.68,1.68,0,0,1,1.09-.35,1.65,1.65,0,0,1,1.14.37,1.51,1.51,0,0,1,.41,1.21s0,.18,0,.41v.54a5.08,5.08,0,0,0,.11,1.25h-.75a4.08,4.08,0,0,1-.07-.49A1.28,1.28,0,0,1,120.47,15Zm1.14-1.53V13.2a4.8,4.8,0,0,0-1.26.23.51.51,0,0,0-.38.46.46.46,0,0,0,.19.38.81.81,0,0,0,.49.14,1,1,0,0,0,.71-.24A.87.87,0,0,0,121.61,13.48Z"/><path class="cls-5" d="M125.23,11.25v.82l-.39,0a.81.81,0,0,0-.61.21,1.09,1.09,0,0,0-.2.74v1.92h-.81V11.25h.8v.65a1.07,1.07,0,0,1,1-.66Z"/><path class="cls-5" d="M127.21,11.17a1.71,1.71,0,0,1,1.08.36,1.54,1.54,0,0,1,.57,1h-.79a.8.8,0,0,0-.29-.48.92.92,0,0,0-1.26.13,1.39,1.39,0,0,0-.27.93,1.39,1.39,0,0,0,.27.93.86.86,0,0,0,.67.32,1.09,1.09,0,0,0,.58-.16.76.76,0,0,0,.32-.51h.8a1.53,1.53,0,0,1-.61,1,1.79,1.79,0,0,1-1.1.36,1.63,1.63,0,0,1-1.28-.54,2,2,0,0,1-.49-1.38,2,2,0,0,1,.49-1.38A1.7,1.7,0,0,1,127.21,11.17Z"/><path class="cls-5" d="M130.33,10v1.79a1.16,1.16,0,0,1,1.11-.59c.84,0,1.25.48,1.25,1.45v2.3h-.81V12.81a2,2,0,0,0,0-.37,1.11,1.11,0,0,0-.08-.3.49.49,0,0,0-.22-.23.78.78,0,0,0-.37-.08c-.57,0-.85.38-.85,1.14v1.95h-.82V10Z"/><path class="cls-5" d="M133.54,10h.81v.82h-.81Zm0,1.28h.81v3.67h-.81Z"/><path class="cls-5" d="M135.71,11.25l.84,2.62.84-2.62h.85l-1.32,3.67h-.77l-1.34-3.67Z"/><path class="cls-5" d="M138.92,11.66a1.9,1.9,0,0,1,2.55,0,1.86,1.86,0,0,1,.54,1.43,1.83,1.83,0,0,1-.54,1.43,1.9,1.9,0,0,1-2.55,0,1.83,1.83,0,0,1-.54-1.43A1.86,1.86,0,0,1,138.92,11.66Zm.58.5a1.43,1.43,0,0,0-.28.93,1.44,1.44,0,0,0,.28.94.91.91,0,0,0,1.39,0,1.44,1.44,0,0,0,.28-.94,1.43,1.43,0,0,0-.28-.93.9.9,0,0,0-1.39,0Z"/><path class="cls-5" d="M144.25,11.25h.81v.49a1.19,1.19,0,0,1,1.09-.57,1.43,1.43,0,0,1,1.14.52,2.13,2.13,0,0,1,.44,1.4,2.13,2.13,0,0,1-.44,1.4,1.43,1.43,0,0,1-1.14.52,1.19,1.19,0,0,1-1.09-.57v1.68h-.81Zm1,.9a1.5,1.5,0,0,0-.26.94,1.49,1.49,0,0,0,.26.93.85.85,0,0,0,.69.33.79.79,0,0,0,.67-.33,1.6,1.6,0,0,0,.24-.93,1.55,1.55,0,0,0-.24-.92.77.77,0,0,0-.67-.34A.87.87,0,0,0,145.29,12.15Z"/><path class="cls-5" d="M150.4,11.25v.82l-.38,0a.79.79,0,0,0-.61.21,1,1,0,0,0-.2.74v1.92h-.81V11.25h.79v.65a1.08,1.08,0,0,1,1-.66Z"/><path class="cls-5" d="M151.13,11.66a1.89,1.89,0,0,1,2.54,0,1.86,1.86,0,0,1,.54,1.43,1.83,1.83,0,0,1-.54,1.43,1.89,1.89,0,0,1-2.54,0,1.83,1.83,0,0,1-.54-1.43A1.86,1.86,0,0,1,151.13,11.66Zm.58.5a1.38,1.38,0,0,0-.28.93,1.39,1.39,0,0,0,.28.94.9.9,0,0,0,1.38,0,1.39,1.39,0,0,0,.28-.94,1.38,1.38,0,0,0-.28-.93.89.89,0,0,0-1.38,0Z"/><path class="cls-5" d="M154.88,15V11.25h.81V15a1.44,1.44,0,0,1-.21.92,1.21,1.21,0,0,1-.85.22h-.28v-.63h.15c.17,0,.27,0,.32-.09A.81.81,0,0,0,154.88,15Zm0-5h.81v.82h-.81Z"/><path class="cls-5" d="M159.93,13.32h-2.74a1.14,1.14,0,0,0,.33.75,1,1,0,0,0,.67.27.86.86,0,0,0,.9-.52h.8a1.59,1.59,0,0,1-.57.84,1.67,1.67,0,0,1-1.1.35,1.69,1.69,0,0,1-1.35-.56,2,2,0,0,1-.51-1.39,1.88,1.88,0,0,1,.51-1.36,1.7,1.7,0,0,1,1.3-.53,1.61,1.61,0,0,1,1.33.61A2.18,2.18,0,0,1,159.93,13.32Zm-1.76-1.52a1,1,0,0,0-.63.23,1,1,0,0,0-.35.69h1.91a.94.94,0,0,0-.28-.67A1,1,0,0,0,158.17,11.8Z"/><path class="cls-5" d="M162.19,11.17a1.71,1.71,0,0,1,1.08.36,1.54,1.54,0,0,1,.57,1h-.79a.8.8,0,0,0-.29-.48.92.92,0,0,0-1.26.13,1.39,1.39,0,0,0-.27.93,1.39,1.39,0,0,0,.27.93.86.86,0,0,0,.67.32,1.07,1.07,0,0,0,.58-.16.76.76,0,0,0,.32-.51h.8a1.53,1.53,0,0,1-.61,1,1.79,1.79,0,0,1-1.1.36,1.63,1.63,0,0,1-1.28-.54,2,2,0,0,1-.49-1.38,2,2,0,0,1,.49-1.38A1.7,1.7,0,0,1,162.19,11.17Z"/><path class="cls-5" d="M164.61,11.25v-1h.81v1h.74v.59h-.74v2a.53.53,0,0,0,.09.37.51.51,0,0,0,.35.09h.3v.62h-.61a1.07,1.07,0,0,1-.76-.19,1.18,1.18,0,0,1-.18-.77V11.84h-.55v-.59Z"/><rect class="cls-1" x="167.71" y="8.98" width="2.7" height="7.03"/><rect class="cls-5" x="24.63" y="9.13" width="73.22" height="7.03"/></svg>