<svg id="Layer_1" data-name="Layer 1" xmlns="http://www.w3.org/2000/svg" viewBox="0 0 32 32"><defs><style>.cls-1{fill:#bbe7ec;}.cls-2{fill:#f2994a;}.cls-3{fill:#2f80ed;}.cls-4{fill:#1922fb;}.cls-5{fill:#6fcf97;}.cls-6{fill:#e52dbc;}.cls-7{fill:#f2c94c;}.cls-8{fill:#eb5757;}.cls-9{fill:#18e4ed;}</style></defs><path class="cls-1" d="M16.05,10.7a5.3,5.3,0,1,1-5.3,5.3A5.34,5.34,0,0,1,16.05,10.7Z"/><rect class="cls-2" x="10.65" y="21.4" width="10.7" height="10.7"/><rect class="cls-3" x="10.7" y="-0.05" width="10.7" height="10.7"/><rect class="cls-4" y="10.65" width="10.7" height="10.7"/><path class="cls-5" d="M26.65,21.45h0a5.34,5.34,0,0,1,5.3,5.3h0a5.34,5.34,0,0,1-5.3,5.3h0a5.34,5.34,0,0,1-5.3-5.3h0A5.34,5.34,0,0,1,26.65,21.45Z"/><path class="cls-6" d="M26.7,0h0A5.34,5.34,0,0,1,32,5.3h0a5.34,5.34,0,0,1-5.3,5.3h0a5.34,5.34,0,0,1-5.3-5.3h0A5.21,5.21,0,0,1,26.7,0Z"/><rect class="cls-7" x="21.3" y="10.7" width="10.7" height="10.7"/><path class="cls-8" d="M5.4,0h0a5.34,5.34,0,0,1,5.3,5.3h0a5.34,5.34,0,0,1-5.3,5.3h0A5.34,5.34,0,0,1,.1,5.3h0A5.34,5.34,0,0,1,5.4,0Z"/><rect class="cls-9" y="21.4" width="10.7" height="10.7"/></svg>