<svg id="Layer_1" data-name="Layer 1" xmlns="http://www.w3.org/2000/svg" viewBox="0 0 32 32"><defs><style>.cls-1{fill:#f2994a;}.cls-2{fill:#ff86dd;}.cls-3{fill:#16edb3;}.cls-4{fill:#eb5757;}.cls-5{fill:#f2c94c;}.cls-6{fill:#27ae60;}.cls-7{fill:#18e4ed;}.cls-8{fill:#6fcf97;}.cls-9{fill:#2f80ed;}</style></defs><path class="cls-1" d="M21.67,21.26h10a.29.29,0,0,1,.29.29v3.87a6.52,6.52,0,0,1-6.52,6.52H21.67a.29.29,0,0,1-.29-.29V21.55A.29.29,0,0,1,21.67,21.26Z"/><rect class="cls-2" x="10.7" y="0.03" width="10.67" height="10.62"/><path class="cls-3" d="M7.26,0H10.7V10.63H0V7.25A7.26,7.26,0,0,1,7.26,0Z"/><path class="cls-4" d="M26.67,0h0A5.34,5.34,0,0,1,32,5.33h0a5.34,5.34,0,0,1-5.31,5.31h0a5.34,5.34,0,0,1-5.3-5.31h0A5.21,5.21,0,0,1,26.67,0Z"/><path class="cls-5" d="M21.38,10.65H32V21.27a0,0,0,0,1,0,0H21.38Z"/><path class="cls-6" d="M5.38,10.63h0A5.38,5.38,0,0,1,10.72,16h0a5.38,5.38,0,0,1-5.34,5.35h0A5.38,5.38,0,0,1,0,16H0A5.38,5.38,0,0,1,5.38,10.63Z"/><path class="cls-7" d="M0,21.31H10.7V32H5.32A5.33,5.33,0,0,1,0,26.68Z"/><path class="cls-8" d="M16,21.29h0a5.36,5.36,0,0,1,5.33,5.33h0A5.36,5.36,0,0,1,16,32h0a5.37,5.37,0,0,1-5.33-5.33h0A5.37,5.37,0,0,1,16,21.29Z"/><rect class="cls-9" x="10.73" y="10.6" width="10.61" height="10.7"/></svg>