<svg id="Layer_1" data-name="Layer 1" xmlns="http://www.w3.org/2000/svg" viewBox="0 0 352.88 159.35">
  <defs>
    <style>
      .cls-1 {
        fill: #506fbc;
      }
    </style>
  </defs>
  <g>
    <path class="cls-1" d="M85,119.08V118a13.65,13.65,0,0,0,1.63-.23,13.85,13.85,0,0,0,2.69-.78,7.72,7.72,0,0,0,2.46-1.57,3.39,3.39,0,0,0,1.07-2.57,14.75,14.75,0,0,0-.62-3.31c-.41-1.53-1-3.39-1.74-5.6s-1.6-4.65-2.57-7.33-2-5.49-3.14-8.4H55q-1.68,4.24-3.25,8.12c-1,2.57-2.09,5.17-3.14,7.78-1.56,4-2.35,6.87-2.35,8.51a3.36,3.36,0,0,0,.9,2.41,7,7,0,0,0,2.29,1.57,12.82,12.82,0,0,0,3,.89c1.08.19,2.11.36,3.08.51v1.12H31.68v-1.23a12.59,12.59,0,0,0,5-1.57,10.79,10.79,0,0,0,2.4-1.68,23.45,23.45,0,0,0,2.58-3.7A81.75,81.75,0,0,0,46,102.28q2.35-5.27,5.26-12l6-13.83q3.09-7.11,6.11-14.33t5.71-13.5L68,46.17A18.51,18.51,0,0,0,71.61,44a21.83,21.83,0,0,0,2.86-2.58,22.86,22.86,0,0,0,2.07-2.57c.56-.82,1-1.5,1.29-2h.89q3.48,9.3,6.61,17.64t6,16.07q2.87,7.73,5.55,15t5.37,14.28q1.23,3.48,2.3,5.77l2.41,5.21a14.44,14.44,0,0,0,1,1.57,13.68,13.68,0,0,0,2.07,2.29,12.48,12.48,0,0,0,3.19,2.08,11.68,11.68,0,0,0,4.48,1v1.35ZM70.32,51.21c-.44,1-1.1,2.5-2,4.59s-1.92,4.63-3.19,7.61S62.5,69.78,61,73.55L56,85.81H83.88C82.6,82.45,81.32,79.09,80,75.73s-2.58-6.58-3.81-9.68-2.35-5.94-3.36-8.52S71,52.85,70.32,51.21Z"/>
    <path class="cls-1" d="M148.27,119.08c-.67-.67-1.15-1.18-1.45-1.51s-.64-.73-1-1.18a22.68,22.68,0,0,1-1.4-2q-.84-1.29-2.63-3.86-2.13-3.13-3.75-5.66t-3.31-5q-1.68-2.48-3.64-5c-1.31-1.68-2.85-3.56-4.65-5.65a44.35,44.35,0,0,0-4.87-4.82,12,12,0,0,0-5.54-2.8,17.07,17.07,0,0,0-3.25-.45c-.67,0-1.53,0-2.58-.11V93.77q0,5.37.12,9.07t.22,6.16a8.08,8.08,0,0,0,1.23,4.25,9.89,9.89,0,0,0,3.47,3A15.78,15.78,0,0,0,122.4,118v1.12H86.56V118a31.37,31.37,0,0,0,5.38-1.35,8.74,8.74,0,0,0,4-2.68,5.23,5.23,0,0,0,.9-2,21.6,21.6,0,0,0,.5-3c.11-1.12.2-2.32.28-3.59s.11-2.5.11-3.69,0-2.47.06-4.26.07-3.75.11-5.88.06-4.31.06-6.55V56.58c0-1.34,0-2.7-.06-4.09s-.11-2.68-.22-3.92a22.19,22.19,0,0,0-.56-3.36A4.87,4.87,0,0,0,96.08,43a8.45,8.45,0,0,0-3.75-2.41,37.77,37.77,0,0,0-5.1-1.06V38.44h4.6c2.53,0,5.41,0,8.62-.06s6.42-.05,9.63-.05h7.84q7.5,0,13.33.44a26.62,26.62,0,0,1,10.64,3,21.55,21.55,0,0,1,8,7,19.27,19.27,0,0,1,3,11.14,17.65,17.65,0,0,1-1.52,7.45,19.7,19.7,0,0,1-4,5.82,24.83,24.83,0,0,1-5.88,4.32,46,46,0,0,1-7.05,3v.34a14.37,14.37,0,0,1,3.69,2.91,40.92,40.92,0,0,1,3.47,4.25q2.91,4.26,6.33,9.19c2.28,3.28,4.31,6.2,6.11,8.73a34.43,34.43,0,0,0,8.06,8.52,21.58,21.58,0,0,0,9.18,3.47v1.12ZM137.19,49.3A19.4,19.4,0,0,0,129,42.36a24.24,24.24,0,0,0-5.66-1.79,32.9,32.9,0,0,0-6.21-.56c-1.57,0-2.84,0-3.81.11s-1.72.15-2.24.22c-.08.45-.15.84-.22,1.18a7.38,7.38,0,0,0-.17,1.29c0,.52-.08,1.25-.11,2.18s-.1,2.26-.17,4c-.08,2.61-.13,5.56-.17,8.84s-.06,6.46-.06,9.52V79.65q4.59,0,8.57-.39a35,35,0,0,0,7.67-1.62,20.6,20.6,0,0,0,6.16-3,17.3,17.3,0,0,0,4.2-4.31,17.53,17.53,0,0,0,2.41-5.21,21.52,21.52,0,0,0,.79-5.82A18.13,18.13,0,0,0,137.19,49.3Z"/>
    <path class="cls-1" d="M218.5,57.81a111.5,111.5,0,0,0-8.74-9.74,31.73,31.73,0,0,0-8.06-5.94,25.93,25.93,0,0,0-6.89-1.51A96,96,0,0,0,183.22,40c-.75,0-1.61,0-2.58.05l-2.8.11-2.52.12c-.78,0-1.36.05-1.73.05-.08.45-.17.9-.29,1.35a12.81,12.81,0,0,0-.27,1.56c-.08.6-.16,1.37-.23,2.3s-.15,2.07-.22,3.42c-.08,2.61-.13,5.47-.17,8.56s-.06,6-.06,8.8V77h2c1.19,0,2.52,0,4-.12s3-.16,4.54-.28a29.52,29.52,0,0,0,3.92-.5,20.81,20.81,0,0,0,6.38-2.35,11.79,11.79,0,0,0,3.7-3.47,13.47,13.47,0,0,0,1.91-4.43q.56-2.4,1-5.21h1.35V96.68h-1.35a52,52,0,0,0-2.57-7.56,17.06,17.06,0,0,0-4-6.11,15.16,15.16,0,0,0-4.53-2.85A18.81,18.81,0,0,0,183,79l-2.91-.17c-.82,0-1.61,0-2.35,0h-5.38V92.65q0,3.13.06,5.76c0,1.76.05,3.27.05,4.54q.12,3.58.4,6.78a10.72,10.72,0,0,0,1.28,4.76,6.4,6.4,0,0,0,3.42,2.4,26.33,26.33,0,0,0,7,1.07v1.12H148.72V118a23,23,0,0,0,5.21-1.46,10.66,10.66,0,0,0,4-2.8,5,5,0,0,0,.89-2c.23-.86.43-1.85.62-3s.31-2.29.39-3.52.11-2.45.11-3.64,0-2.47.06-4.26.07-3.75.11-5.88,0-4.31,0-6.55V56.58c0-1.34,0-2.72,0-4.14s-.11-2.76-.22-4A21,21,0,0,0,159.3,45a4.66,4.66,0,0,0-1.06-2.18,7.63,7.63,0,0,0-3.58-2.3,45.86,45.86,0,0,0-4.93-.95V38.44H212l7.62,18.81Z"/>
    <path class="cls-1" d="M239.66,119.08V118a13.65,13.65,0,0,0,1.63-.23A13.85,13.85,0,0,0,244,117a7.72,7.72,0,0,0,2.46-1.57,3.38,3.38,0,0,0,1.06-2.57,14.58,14.58,0,0,0-.61-3.31c-.41-1.53-1-3.39-1.74-5.6s-1.6-4.65-2.57-7.33-2-5.49-3.14-8.4H209.65q-1.68,4.24-3.25,8.12c-1.05,2.57-2.09,5.17-3.14,7.78-1.56,4-2.35,6.87-2.35,8.51a3.36,3.36,0,0,0,.9,2.41,7,7,0,0,0,2.29,1.57,12.82,12.82,0,0,0,3,.89c1.08.19,2.11.36,3.08.51v1.12H186.35v-1.23a12.59,12.59,0,0,0,5-1.57,10.79,10.79,0,0,0,2.4-1.68,23.45,23.45,0,0,0,2.58-3.7,81.75,81.75,0,0,0,4.37-8.62Q203,97,206,90.29l6-13.83q3.09-7.11,6.11-14.33t5.71-13.5l-1.12-2.46A18.51,18.51,0,0,0,226.28,44a21.83,21.83,0,0,0,2.86-2.58,22.86,22.86,0,0,0,2.07-2.57c.56-.82,1-1.5,1.29-2h.89q3.48,9.3,6.61,17.64t6,16.07q2.87,7.73,5.55,15t5.37,14.28q1.23,3.48,2.3,5.77l2.41,5.21a14.44,14.44,0,0,0,1,1.57,13.68,13.68,0,0,0,2.07,2.29,12.48,12.48,0,0,0,3.19,2.08,11.68,11.68,0,0,0,4.48,1v1.35ZM225,51.21c-.44,1-1.1,2.5-2,4.59s-1.92,4.63-3.19,7.61-2.67,6.37-4.2,10.14l-5,12.26h27.89c-1.28-3.36-2.56-6.72-3.87-10.08s-2.58-6.58-3.81-9.68-2.35-5.94-3.36-8.52S225.66,52.85,225,51.21Z"/>
    <path class="cls-1" d="M313.14,119.08H245.6l-.45-.79,56.67-77.84H287.71q-4,0-7.67.06c-2.43,0-4.35.09-5.77.17a22.46,22.46,0,0,0-7.67,1.68,26.68,26.68,0,0,0-6.22,3.69c-.89.75-2,1.78-3.3,3.08s-2.63,2.75-4,4.32-2.63,3.15-3.86,4.76a51.37,51.37,0,0,0-3.08,4.42l-1.23-.45,8.17-23.85c1.05.07,3,.13,5.72.16l9.85.12q5.71,0,12.32,0h35.84l.34.67-56.56,77.73c3.73.08,7.09.11,10.08.11h9.07c1.27,0,2.89,0,4.87-.11s4.05-.22,6.22-.45a29.22,29.22,0,0,0,16.29-7.28A62.25,62.25,0,0,0,320,93.43l1.23.45Z"/>
  </g>
  <polygon points="214.6 123.09 216.39 122.98 216.39 124.21 214.6 124.21 214.6 123.09"/>
</svg>
