<?xml version="1.0" encoding="utf-8"?>
<!-- Generator: Adobe Illustrator 26.4.1, SVG Export Plug-In . SVG Version: 6.00 Build 0)  -->
<svg version="1.1" id="Layer_1" xmlns="http://www.w3.org/2000/svg" xmlns:xlink="http://www.w3.org/1999/xlink" x="0px" y="0px"
	 viewBox="0 0 160 160" style="enable-background:new 0 0 160 160;" xml:space="preserve">
<style type="text/css">
	.st0{fill:#FFFFFF;}
	.st1{fill:#BD2226;}
</style>
<rect x="64.8" y="43.2" transform="matrix(3.489748e-11 -1 1 3.489748e-11 -60.0371 258.163)" class="st0" width="68.5" height="231.9"/>
<rect x="34.7" y="13.7" class="st1" width="130" height="130"/>
<path d="M-34.4,464.4v-1.1c0.5,0,1.1-0.1,1.6-0.2c0.9-0.2,1.8-0.4,2.7-0.8c0.9-0.4,1.7-0.9,2.5-1.6c0.7-0.7,1.1-1.6,1.1-2.6
	c-0.1-1.1-0.3-2.2-0.6-3.3c-0.4-1.5-1-3.4-1.7-5.6c-0.7-2.2-1.6-4.7-2.6-7.3s-2-5.5-3.1-8.4h-29.9c-1.1,2.8-2.2,5.5-3.2,8.1
	s-2.1,5.2-3.1,7.8c-1.6,4-2.4,6.8-2.4,8.5c0,0.9,0.3,1.8,0.9,2.4c0.7,0.7,1.4,1.2,2.3,1.6c1,0.4,2,0.7,3,0.9
	c1.1,0.2,2.1,0.4,3.1,0.5v1.1h-23.9v-1.2c1.8-0.2,3.5-0.7,5-1.6c0.9-0.4,1.7-1,2.4-1.7c1-1.1,1.8-2.4,2.6-3.7
	c1.6-2.8,3.1-5.7,4.4-8.6c1.6-3.5,3.3-7.5,5.3-12l6-13.8c2-4.7,4.1-9.5,6.1-14.3c2-4.8,3.9-9.3,5.7-13.5l-1.1-2.5
	c1.3-0.6,2.5-1.3,3.6-2.2c1-0.8,2-1.6,2.9-2.6c0.8-0.8,1.4-1.7,2.1-2.6c0.6-0.8,1-1.5,1.3-2h0.9c2.3,6.2,4.5,12.1,6.6,17.6
	c2.1,5.6,4.1,10.9,6,16.1c1.9,5.2,3.8,10.2,5.6,15c1.8,4.8,3.6,9.6,5.4,14.3c0.8,2.3,1.6,4.2,2.3,5.8l2.4,5.2c0.3,0.5,0.6,1.1,1,1.6
	c0.6,0.8,1.3,1.6,2.1,2.3c1,0.9,2,1.6,3.2,2.1c1.4,0.6,2.9,1,4.5,1v1.3L-34.4,464.4z M-49.1,396.5c-0.4,1-1.1,2.5-2,4.6
	s-1.9,4.6-3.2,7.6s-2.7,6.4-4.2,10.1l-5,12.3h27.9c-1.3-3.3-2.6-6.7-3.9-10.1c-1.3-3.4-2.6-6.6-3.8-9.7s-2.3-5.9-3.4-8.5
	S-48.4,398.1-49.1,396.5z"/>
<path d="M28.9,464.4c-0.7-0.7-1.2-1.2-1.4-1.5c-0.2-0.3-0.6-0.7-1-1.2c-0.5-0.6-1-1.3-1.4-2c-0.6-0.9-1.4-2.1-2.6-3.9
	c-1.4-2.1-2.7-4-3.8-5.7s-2.2-3.4-3.3-5c-1.1-1.7-2.3-3.3-3.6-5s-2.9-3.6-4.7-5.7c-1.5-1.7-3.1-3.3-4.9-4.8
	c-1.6-1.4-3.5-2.4-5.5-2.8c-1.1-0.3-2.2-0.4-3.2-0.4c-0.7,0-1.5,0-2.6-0.1V439c0,3.6,0,6.6,0.1,9.1s0.2,4.5,0.2,6.2
	c0,1.5,0.4,3,1.2,4.2c0.9,1.3,2.1,2.3,3.5,3c2.2,1.1,4.7,1.7,7.2,1.7v1.1h-36v-1c1.8-0.3,3.6-0.7,5.4-1.3c1.6-0.5,2.9-1.4,4-2.7
	c0.4-0.6,0.7-1.3,0.9-2c0.2-1,0.4-2,0.5-3c0.1-1.1,0.2-2.3,0.3-3.6c0.1-1.3,0.1-2.5,0.1-3.7c0-1.2,0-2.5,0.1-4.3
	c0.1-1.8,0.1-3.8,0.1-5.9s0.1-4.3,0.1-6.6v-28.3c0-1.3,0-2.7-0.1-4.1c-0.1-1.4-0.1-2.7-0.2-3.9c-0.1-1.1-0.3-2.3-0.6-3.4
	c-0.2-0.8-0.5-1.6-1-2.2c-1-1.1-2.3-1.9-3.8-2.4c-1.7-0.5-3.4-0.8-5.1-1.1v-1.1h4.6c2.5,0,5.4,0,8.6-0.1s6.4,0,9.6,0h7.8
	c5,0,9.4,0.1,13.3,0.4c3.7,0.2,7.3,1.3,10.6,3c3.2,1.6,6,4,8,7c2.1,3.3,3.2,7.2,3,11.1c0,2.6-0.5,5.1-1.6,7.5c-1,2.2-2.3,4.1-4,5.8
	c-1.7,1.7-3.7,3.2-5.9,4.3c-2.3,1.2-4.6,2.2-7.1,3v0.3c1.4,0.8,2.6,1.7,3.7,2.9c1.3,1.3,2.4,2.8,3.5,4.2c1.9,2.8,4.1,5.9,6.3,9.2
	c2.3,3.3,4.3,6.2,6.1,8.7c2.2,3.3,4.9,6.2,8.1,8.5c2.8,1.8,5.9,3,9.2,3.5v1.1L28.9,464.4z M17.8,394.6c-2-3-4.9-5.4-8.2-6.9
	c-1.8-0.8-3.7-1.4-5.7-1.8s-4.1-0.6-6.2-0.6c-1.6,0-2.8,0-3.8,0.1s-1.7,0.2-2.2,0.2c-0.1,0.5-0.2,0.8-0.2,1.2
	c-0.1,0.4-0.1,0.9-0.2,1.3c0,0.5-0.1,1.2-0.1,2.2s-0.1,2.3-0.2,4c-0.1,2.6-0.1,5.6-0.2,8.8c-0.1,3.2-0.1,6.5-0.1,9.5v12.3
	c3.1,0,5.9-0.1,8.6-0.4c2.6-0.3,5.2-0.8,7.7-1.6c2.2-0.6,4.3-1.7,6.2-3c1.6-1.2,3.1-2.6,4.2-4.3c1.1-1.6,1.9-3.4,2.4-5.2
	c0.5-1.9,0.8-3.9,0.8-5.8C20.6,401.1,19.7,397.6,17.8,394.6z"/>
<path d="M99.1,403.1c-2.7-3.4-5.6-6.7-8.7-9.7c-2.4-2.4-5.1-4.4-8.1-5.9c-2.2-0.8-4.5-1.3-6.9-1.5c-3.8-0.4-7.7-0.6-11.6-0.6
	c-0.8,0-1.6,0-2.6,0l-2.8,0.1l-2.5,0.1c-0.8,0-1.4,0-1.7,0c-0.1,0.5-0.2,0.9-0.3,1.3c-0.1,0.5-0.2,1-0.3,1.6s-0.2,1.4-0.2,2.3
	s-0.1,2.1-0.2,3.4c-0.1,2.6-0.1,5.5-0.2,8.6c-0.1,3.1-0.1,6-0.1,8.8v10.7h2c1.2,0,2.5,0,4-0.1c1.5-0.1,3-0.2,4.5-0.3
	c1.3-0.1,2.6-0.2,3.9-0.5c2.2-0.4,4.4-1.2,6.4-2.3c1.5-0.9,2.7-2.1,3.7-3.5c0.9-1.3,1.5-2.9,1.9-4.4c0.4-1.6,0.7-3.3,1-5.2h1.4v36
	h-1.4c-0.7-2.6-1.5-5.1-2.6-7.6c-0.9-2.3-2.2-4.4-4-6.1c-1.3-1.2-2.9-2.2-4.5-2.8c-1.8-0.7-3.7-1.1-5.7-1.2l-2.9-0.2
	c-0.8,0-1.6,0-2.4,0h-5.3v13.8c0,2.1,0,4,0.1,5.8c0,1.8,0.1,3.3,0.1,4.5c0.1,2.4,0.2,4.6,0.4,6.8c0,1.7,0.5,3.3,1.3,4.8
	c0.8,1.2,2,2,3.4,2.4c2.3,0.7,4.6,1,7,1.1v1.1H29.4v-1.1c1.8-0.3,3.5-0.8,5.2-1.5c1.5-0.6,2.9-1.6,4-2.8c0.4-0.6,0.7-1.3,0.9-2
	c0.2-0.9,0.4-1.8,0.6-3s0.3-2.3,0.4-3.5s0.1-2.4,0.1-3.6c0-1.2,0-2.5,0.1-4.3c0.1-1.8,0.1-3.8,0.1-5.9c0-2.1,0.1-4.3,0.1-6.6v-28.2
	c0-1.3,0-2.7-0.1-4.1c0-1.4-0.1-2.8-0.2-4c-0.1-1.2-0.3-2.3-0.6-3.4c-0.2-0.8-0.5-1.6-1.1-2.2c-1-1.1-2.2-1.9-3.6-2.3
	c-1.6-0.4-3.3-0.7-4.9-1v-1.1h62.3l7.6,18.8L99.1,403.1z"/>
<path d="M120.2,464.4v-1.1c0.5,0,1.1-0.1,1.6-0.2c0.9-0.2,1.8-0.4,2.7-0.8c0.9-0.4,1.7-0.9,2.5-1.6c0.7-0.7,1.1-1.6,1.1-2.6
	c-0.1-1.1-0.3-2.2-0.6-3.3c-0.4-1.5-1-3.4-1.7-5.6c-0.7-2.2-1.6-4.7-2.6-7.3s-2-5.5-3.1-8.4H90.3c-1.1,2.8-2.2,5.5-3.2,8.1
	s-2.1,5.2-3.1,7.8c-1.6,4-2.4,6.8-2.4,8.5c0,0.9,0.3,1.8,0.9,2.4c0.7,0.7,1.4,1.2,2.3,1.6c1,0.4,2,0.7,3,0.9
	c1.1,0.2,2.1,0.4,3.1,0.5v1.1h-24v-1.2c1.8-0.2,3.5-0.7,5-1.6c0.9-0.4,1.7-1,2.4-1.7c1-1.1,1.8-2.4,2.6-3.7c1.6-2.8,3.1-5.7,4.4-8.6
	c1.6-3.5,3.3-7.5,5.3-12l6-13.8c2.1-4.7,4.1-9.5,6.1-14.3c2-4.8,3.9-9.3,5.7-13.5l-1.1-2.5c1.3-0.6,2.6-1.3,3.7-2.2
	c1-0.8,2-1.6,2.9-2.6c0.8-0.8,1.4-1.7,2.1-2.6c0.6-0.8,1-1.5,1.3-2h0.9c2.3,6.2,4.5,12.1,6.6,17.6c2.1,5.6,4.1,10.9,6,16.1
	c1.9,5.2,3.8,10.2,5.6,15c1.8,4.8,3.6,9.6,5.4,14.3c0.8,2.3,1.6,4.2,2.3,5.8l2.4,5.2c0.3,0.5,0.6,1.1,1,1.6c0.6,0.8,1.3,1.6,2.1,2.3
	c1,0.9,2,1.6,3.2,2.1c1.4,0.6,2.9,1,4.5,1v1.3L120.2,464.4z M105.6,396.5c-0.4,1-1.1,2.5-2,4.6s-1.9,4.6-3.2,7.6s-2.7,6.4-4.2,10.1
	l-5,12.3h27.9c-1.3-3.3-2.6-6.7-3.9-10.1c-1.3-3.4-2.6-6.6-3.8-9.7s-2.4-5.9-3.4-8.5S106.2,398.1,105.6,396.5z"/>
<path d="M193.7,464.4h-67.5l-0.4-0.8l56.7-77.8h-14.1c-2.7,0-5.2,0-7.7,0.1s-4.4,0.1-5.8,0.2c-2.6,0.1-5.2,0.7-7.7,1.7
	c-2.2,0.9-4.3,2.2-6.2,3.7c-0.9,0.8-2,1.8-3.3,3.1c-1.3,1.3-2.6,2.8-4,4.3s-2.6,3.2-3.9,4.8c-1.1,1.4-2.1,2.9-3.1,4.4l-1.2-0.5
	l8.2-23.9c1.1,0.1,2.9,0.1,5.7,0.2l9.9,0.1c3.8,0,7.9,0,12.3,0h35.8l0.3,0.7l-56.5,77.6c3.7,0.1,7.1,0.1,10.1,0.1h9.1
	c1.3,0,2.9,0,4.9-0.1c2-0.1,4-0.2,6.2-0.4c6.1-0.7,11.8-3.2,16.3-7.3c5.1-4.6,9.5-9.9,12.8-15.9l1.2,0.4L193.7,464.4z"/>
<polygon points="114.5,468.4 116.3,468.3 116.3,469.5 114.5,469.5 "/>
<path class="st0" d="M103.8,147.7v-1.8c0.8,0,1.8-0.2,2.7-0.3c1.5-0.3,3-0.7,4.5-1.3c1.5-0.7,2.9-1.5,4.2-2.7
	c1.2-1.2,1.8-2.7,1.8-4.4c-0.2-1.8-0.5-3.7-1-5.5c-0.7-2.5-1.7-5.7-2.9-9.4c-1.2-3.7-2.7-7.9-4.4-12.2s-3.4-9.2-5.2-14.1H53.5
	c-1.8,4.7-3.7,9.2-5.4,13.6c-1.7,4.4-3.5,8.7-5.2,13.1c-2.7,6.7-4,11.4-4,14.3c0,1.5,0.5,3,1.5,4c1.2,1.2,2.3,2,3.9,2.7
	c1.7,0.7,3.4,1.2,5,1.5c1.8,0.3,3.5,0.7,5.2,0.8v1.8H14.4v-2c3-0.3,5.9-1.2,8.4-2.7c1.5-0.7,2.9-1.7,4-2.9c1.7-1.8,3-4,4.4-6.2
	c2.7-4.7,5.2-9.6,7.4-14.4c2.7-5.9,5.5-12.6,8.9-20.1l10.1-23.1c3.4-7.9,6.9-15.9,10.2-24c3.4-8.1,6.5-15.6,9.6-22.6l-1.8-4.2
	c2.2-1,4.2-2.2,6-3.7c1.7-1.3,3.4-2.7,4.9-4.4c1.3-1.3,2.3-2.9,3.5-4.4c1-1.3,1.7-2.5,2.2-3.4h1.5c3.9,10.4,7.5,20.3,11.1,29.5
	c3.5,9.4,6.9,18.3,10.1,27c3.2,8.7,6.4,17.1,9.4,25.2c3,8.1,6,16.1,9.1,24c1.3,3.9,2.7,7,3.9,9.7l4,8.7c0.5,0.8,1,1.8,1.7,2.7
	c1,1.3,2.2,2.7,3.5,3.9c1.7,1.5,3.4,2.7,5.4,3.5c2.3,1,4.9,1.7,7.5,1.7v2.2L103.8,147.7z M79.1,33.8c-0.7,1.7-1.8,4.2-3.4,7.7
	c-1.5,3.5-3.2,7.7-5.4,12.7s-4.5,10.7-7,16.9L55,91.8h46.8c-2.2-5.5-4.4-11.2-6.5-16.9c-2.2-5.7-4.4-11.1-6.4-16.3
	s-3.9-9.9-5.7-14.3C81.3,40,80.3,36.5,79.1,33.8z"/>
<path class="st0" d="M209.9,147.4c-1.2-1.2-2-2-2.3-2.5c-0.3-0.5-1-1.2-1.7-2c-0.8-1-1.7-2.2-2.3-3.4c-1-1.5-2.3-3.5-4.3-6.6
	c-2.3-3.5-4.5-6.7-6.3-9.6c-1.8-2.9-3.6-5.7-5.5-8.4c-1.8-2.9-3.8-5.5-6-8.4c-2.2-2.9-4.8-6-7.8-9.6c-2.5-2.9-5.1-5.5-8.1-8.1
	c-2.7-2.4-5.8-4-9.1-4.7c-1.8-0.5-3.6-0.7-5.3-0.7c-1.2,0-2.5,0-4.3-0.2v21.3c0,6,0,11.1,0.2,15.3c0.2,4.2,0.3,7.6,0.3,10.4
	c0,2.5,0.7,5,2,7.1c1.5,2.2,3.5,3.9,5.8,5c3.6,1.8,7.8,2.9,11.9,2.9v1.8h-59.6v-1.7c3-0.5,6-1.2,8.9-2.2c2.7-0.8,4.8-2.4,6.6-4.5
	c0.7-1,1.2-2.2,1.5-3.4c0.3-1.7,0.7-3.4,0.8-5c0.2-1.8,0.3-3.9,0.5-6c0.2-2.2,0.2-4.2,0.2-6.2c0-2,0-4.2,0.2-7.2s0.2-6.4,0.2-9.9
	c0-3.5,0.2-7.2,0.2-11.1V42.4c0-2.2,0-4.5-0.2-6.9c-0.2-2.4-0.2-4.5-0.3-6.6c-0.2-1.8-0.5-3.9-1-5.7c-0.3-1.3-0.8-2.7-1.7-3.7
	c-1.7-1.8-3.8-3.2-6.3-4c-2.8-0.8-5.6-1.3-8.4-1.8v-1.8h7.6c4.1,0,8.9,0,14.2-0.2c5.3-0.2,10.6,0,15.9,0h12.9c8.3,0,15.6,0.2,22,0.7
	c6.1,0.3,12.1,2.2,17.6,5c5.3,2.7,9.9,6.7,13.3,11.8c3.5,5.5,5.3,12.1,5,18.6c0,4.4-0.8,8.6-2.7,12.6c-1.7,3.7-3.8,6.9-6.6,9.7
	c-2.8,2.9-6.1,5.4-9.8,7.2c-3.8,2-7.6,3.7-11.8,5v0.5c2.3,1.3,4.3,2.9,6.1,4.9c2.2,2.2,4,4.7,5.8,7.1c3.1,4.7,6.8,9.9,10.4,15.5
	c3.8,5.5,7.1,10.4,10.1,14.6c3.6,5.5,8.1,10.4,13.4,14.3c4.6,3,9.8,5,15.2,5.9v1.8L209.9,147.4z M191.6,30.1
	c-3.3-5-8.1-9.1-13.6-11.6c-3-1.3-6.1-2.4-9.4-3c-3.3-0.7-6.8-1-10.3-1c-2.7,0-4.6,0-6.3,0.2c-1.7,0.2-2.8,0.3-3.6,0.3
	c-0.2,0.8-0.3,1.3-0.3,2c-0.2,0.7-0.2,1.5-0.3,2.2c0,0.8-0.2,2-0.2,3.7s-0.2,3.9-0.3,6.7C147,34,147,39,146.8,44.4
	c-0.2,5.4-0.2,10.9-0.2,16V81c5.1,0,9.8-0.2,14.2-0.7c4.3-0.5,8.6-1.3,12.8-2.7c3.6-1,7.1-2.9,10.3-5c2.7-2,5.1-4.4,7-7.2
	c1.8-2.7,3.1-5.7,4-8.7c0.8-3.2,1.3-6.6,1.3-9.7C196.2,41,194.7,35.2,191.6,30.1z"/>
<path class="st0" d="M-53.3,61.6c1.5,6.6,3.4,13.3,5.8,19.5c1.8,5,4.2,9.5,7.4,13.5c2.5,2.5,5.4,4.6,8.5,6.3
	c5,2.8,10.2,5.4,15.6,7.8c1.1,0.5,2.2,0.9,3.6,1.5l3.9,1.5l3.5,1.3c1.1,0.5,1.9,0.8,2.3,1c0.5-0.7,0.8-1.2,1.2-1.8
	c0.5-0.7,0.9-1.4,1.4-2.2c0.5-0.8,1.2-2,1.7-3.3s1.5-3.1,2.4-4.9c1.8-3.8,3.6-8.1,5.8-12.6s4-8.8,5.8-13l6.8-15.9l-2.8-1.2
	c-1.7-0.7-3.4-1.5-5.6-2.2c-2.1-0.7-4.3-1.5-6.4-2.2c-1.9-0.6-3.7-1.2-5.7-1.6c-3.3-0.7-6.8-0.8-10.3-0.4c-2.6,0.4-5.1,1.5-7.3,3
	c-2.1,1.4-3.9,3.4-5.4,5.4c-1.6,2.1-3.1,4.5-4.7,7.1l-1.9-0.8l23-53.4l1.9,0.8c-0.7,4.3-1.2,8.5-1.3,12.8c-0.2,3.9,0.2,7.8,1.6,11.4
	c1,2.6,2.6,5,4.4,6.8c2,2.1,4.4,3.8,7.1,5.2l3.9,2c1.1,0.5,2.2,0.9,3.3,1.4l7.3,3.1l8.8-20.5c1.3-3.1,2.6-5.9,3.6-8.7
	c1.1-2.7,2-5,2.7-6.7c1.4-3.6,2.7-6.9,3.8-10.3c1.1-2.5,1.4-5.2,1.3-7.9c-0.3-2.3-1.5-4.2-3.2-5.6C38-4.2,35.1-6,31.8-7.6l0.7-1.6
	L81.8,12l-0.7,1.6c-2.7-0.6-5.3-0.9-8.1-0.9c-2.4,0-5,0.7-7.3,1.8c-0.9,0.7-1.8,1.5-2.5,2.4c-0.8,1.2-1.7,2.4-2.7,4.1
	c-1,1.7-1.9,3.2-2.8,5c-0.9,1.7-1.7,3.5-2.4,5.3s-1.6,3.7-2.9,6.3c-1.3,2.6-2.6,5.6-3.9,8.7s-2.9,6.3-4.3,9.7l-18,41.8
	c-0.8,1.9-1.7,4-2.5,6.1c-0.9,2.1-1.6,4.2-2.3,6.1c-0.6,1.8-1.1,3.6-1.3,5.4c-0.2,1.3-0.3,2.7,0.1,3.9c0.7,2.2,1.8,4.1,3.5,5.5
	c1.9,1.5,4.1,3,6.1,4.4l-0.7,1.6l-85.8-36.9l1.5-32.4L-53.3,61.6z"/>
<path d="M382.1,295.7v-1.1c0.5,0,1.1-0.1,1.6-0.2c0.9-0.2,1.8-0.4,2.7-0.8s1.7-0.9,2.5-1.6c0.7-0.7,1.1-1.6,1.1-2.6
	c-0.1-1.1-0.3-2.2-0.6-3.3c-0.4-1.5-1-3.4-1.7-5.6c-0.7-2.2-1.6-4.7-2.6-7.3s-2-5.5-3.1-8.4h-29.8c-1.1,2.8-2.2,5.5-3.2,8.1
	c-1,2.6-2.1,5.2-3.1,7.8c-1.6,4-2.4,6.8-2.4,8.5c0,0.9,0.3,1.8,0.9,2.4c0.7,0.7,1.4,1.2,2.3,1.6c1,0.4,2,0.7,3,0.9
	c1.1,0.2,2.1,0.4,3.1,0.5v1.1h-24v-1.2c1.8-0.2,3.5-0.7,5-1.6c0.9-0.4,1.7-1,2.4-1.7c1-1.1,1.8-2.4,2.6-3.7c1.6-2.8,3.1-5.7,4.4-8.6
	c1.6-3.5,3.3-7.5,5.3-12l6-13.8c2.1-4.7,4.1-9.5,6.1-14.3s3.9-9.3,5.7-13.5l-1.1-2.5c1.3-0.6,2.6-1.3,3.7-2.2c1-0.8,2-1.6,2.9-2.6
	c0.8-0.8,1.4-1.7,2.1-2.6c0.6-0.8,1-1.5,1.3-2h0.9c2.3,6.2,4.5,12.1,6.6,17.6c2.1,5.6,4.1,10.9,6,16.1s3.8,10.2,5.6,15
	c1.8,4.8,3.6,9.6,5.4,14.3c0.8,2.3,1.6,4.2,2.3,5.8l2.4,5.2c0.3,0.5,0.6,1.1,1,1.6c0.6,0.8,1.3,1.6,2.1,2.3c1,0.9,2,1.6,3.2,2.1
	c1.4,0.6,2.9,1,4.5,1v1.3H382.1z M367.5,227.8c-0.4,1-1.1,2.5-2,4.6c-0.9,2.1-1.9,4.6-3.2,7.6c-1.3,3-2.7,6.4-4.2,10.1l-5,12.3H381
	c-1.3-3.3-2.6-6.7-3.9-10.1c-1.3-3.4-2.6-6.6-3.8-9.7c-1.2-3.1-2.4-5.9-3.4-8.5C368.9,231.5,368.1,229.4,367.5,227.8z"/>
<path d="M455.6,295.7h-67.5l-0.4-0.8l56.7-77.8h-14.1c-2.7,0-5.2,0-7.7,0.1c-2.5,0.1-4.4,0.1-5.8,0.2c-2.6,0.1-5.2,0.7-7.7,1.7
	c-2.2,0.9-4.3,2.2-6.2,3.7c-0.9,0.8-2,1.8-3.3,3.1c-1.3,1.3-2.6,2.8-4,4.3s-2.6,3.2-3.9,4.8c-1.1,1.4-2.1,2.9-3.1,4.4l-1.2-0.5
	l8.2-23.9c1.1,0.1,2.9,0.1,5.7,0.2l9.9,0.1c3.8,0,7.9,0,12.3,0h35.8l0.3,0.7l-56.5,77.6c3.7,0.1,7.1,0.1,10.1,0.1h9.1
	c1.3,0,2.9,0,4.9-0.1s4-0.2,6.2-0.4c6.1-0.7,11.8-3.2,16.3-7.3c5.1-4.6,9.5-9.9,12.8-15.9l1.2,0.4L455.6,295.7z"/>
<polygon points="376.4,299.7 378.2,299.6 378.2,300.8 376.4,300.8 "/>
<rect x="-13.3" y="-24.2" class="st0" width="48" height="209.2"/>
<rect x="141.2" y="-26.2" class="st0" width="71.5" height="209.2"/>
<rect x="86.4" y="-114.9" transform="matrix(4.492590e-11 -1 1 4.492590e-11 120.7205 100.0784)" class="st0" width="48" height="209.2"/>
</svg>
