<?xml version="1.0" encoding="utf-8"?>
<!-- Generator: Adobe Illustrator 26.4.1, SVG Export Plug-In . SVG Version: 6.00 Build 0)  -->
<svg version="1.1" id="Layer_1" xmlns="http://www.w3.org/2000/svg" xmlns:xlink="http://www.w3.org/1999/xlink" x="0px" y="0px"
	 viewBox="0 0 160 160" style="enable-background:new 0 0 160 160;" xml:space="preserve">
<style type="text/css">
	.st0{fill:#FFFFFF;}
	.st1{fill:#BD2226;}
</style>
<rect x="-39.6" y="134.1" class="st0" width="291.6" height="79.3"/>
<rect x="25.2" y="5.3" class="st1" width="163.5" height="150.5"/>
<path d="M-34.4,464.4v-1.1c0.5,0,1.1-0.1,1.6-0.2c0.9-0.2,1.8-0.4,2.7-0.8c0.9-0.4,1.7-0.9,2.5-1.6c0.7-0.7,1.1-1.6,1.1-2.6
	c-0.1-1.1-0.3-2.2-0.6-3.3c-0.4-1.5-1-3.4-1.7-5.6s-1.6-4.7-2.6-7.3c-1-2.6-2-5.5-3.1-8.4h-29.9c-1.1,2.8-2.2,5.5-3.2,8.1
	s-2.1,5.2-3.1,7.8c-1.6,4-2.4,6.8-2.4,8.5c0,0.9,0.3,1.8,0.9,2.4c0.7,0.7,1.4,1.2,2.3,1.6c1,0.4,2,0.7,3,0.9
	c1.1,0.2,2.1,0.4,3.1,0.5v1.1h-23.9v-1.2c1.8-0.2,3.5-0.7,5-1.6c0.9-0.4,1.7-1,2.4-1.7c1-1.1,1.8-2.4,2.6-3.7
	c1.6-2.8,3.1-5.7,4.4-8.6c1.6-3.5,3.3-7.5,5.3-12l6-13.8c2-4.7,4.1-9.5,6.1-14.3s3.9-9.3,5.7-13.5l-1.1-2.5c1.3-0.6,2.5-1.3,3.6-2.2
	c1-0.8,2-1.6,2.9-2.6c0.8-0.8,1.4-1.7,2.1-2.6c0.6-0.8,1-1.5,1.3-2h0.9c2.3,6.2,4.5,12.1,6.6,17.6c2.1,5.6,4.1,10.9,6,16.1
	s3.8,10.2,5.6,15c1.8,4.8,3.6,9.6,5.4,14.3c0.8,2.3,1.6,4.2,2.3,5.8l2.4,5.2c0.3,0.5,0.6,1.1,1,1.6c0.6,0.8,1.3,1.6,2.1,2.3
	c1,0.9,2,1.6,3.2,2.1c1.4,0.6,2.9,1,4.5,1v1.3L-34.4,464.4z M-49.1,396.5c-0.4,1-1.1,2.5-2,4.6s-1.9,4.6-3.2,7.6s-2.7,6.4-4.2,10.1
	l-5,12.3h27.9c-1.3-3.3-2.6-6.7-3.9-10.1c-1.3-3.4-2.6-6.6-3.8-9.7s-2.3-5.9-3.4-8.5S-48.4,398.1-49.1,396.5z"/>
<path d="M28.9,464.4c-0.7-0.7-1.2-1.2-1.4-1.5c-0.2-0.3-0.6-0.7-1-1.2c-0.5-0.6-1-1.3-1.4-2c-0.6-0.9-1.4-2.1-2.6-3.9
	c-1.4-2.1-2.7-4-3.8-5.7s-2.2-3.4-3.3-5c-1.1-1.7-2.3-3.3-3.6-5s-2.9-3.6-4.7-5.7c-1.5-1.7-3.1-3.3-4.9-4.8
	c-1.6-1.4-3.5-2.4-5.5-2.8c-1.1-0.3-2.2-0.4-3.2-0.4c-0.7,0-1.5,0-2.6-0.1V439c0,3.6,0,6.6,0.1,9.1s0.2,4.5,0.2,6.2
	c0,1.5,0.4,3,1.2,4.2c0.9,1.3,2.1,2.3,3.5,3c2.2,1.1,4.7,1.7,7.2,1.7v1.1h-36v-1c1.8-0.3,3.6-0.7,5.4-1.3c1.6-0.5,2.9-1.4,4-2.7
	c0.4-0.6,0.7-1.3,0.9-2c0.2-1,0.4-2,0.5-3c0.1-1.1,0.2-2.3,0.3-3.6c0.1-1.3,0.1-2.5,0.1-3.7s0-2.5,0.1-4.3s0.1-3.8,0.1-5.9
	s0.1-4.3,0.1-6.6v-28.3c0-1.3,0-2.7-0.1-4.1s-0.1-2.7-0.2-3.9c-0.1-1.1-0.3-2.3-0.6-3.4c-0.2-0.8-0.5-1.6-1-2.2
	c-1-1.1-2.3-1.9-3.8-2.4c-1.7-0.5-3.4-0.8-5.1-1.1v-1.1h4.6c2.5,0,5.4,0,8.6-0.1s6.4,0,9.6,0h7.8c5,0,9.4,0.1,13.3,0.4
	c3.7,0.2,7.3,1.3,10.6,3c3.2,1.6,6,4,8,7c2.1,3.3,3.2,7.2,3,11.1c0,2.6-0.5,5.1-1.6,7.5c-1,2.2-2.3,4.1-4,5.8
	c-1.7,1.7-3.7,3.2-5.9,4.3c-2.3,1.2-4.6,2.2-7.1,3v0.3c1.4,0.8,2.6,1.7,3.7,2.9c1.3,1.3,2.4,2.8,3.5,4.2c1.9,2.8,4.1,5.9,6.3,9.2
	c2.3,3.3,4.3,6.2,6.1,8.7c2.2,3.3,4.9,6.2,8.1,8.5c2.8,1.8,5.9,3,9.2,3.5v1.1L28.9,464.4z M17.8,394.6c-2-3-4.9-5.4-8.2-6.9
	c-1.8-0.8-3.7-1.4-5.7-1.8s-4.1-0.6-6.2-0.6c-1.6,0-2.8,0-3.8,0.1s-1.7,0.2-2.2,0.2c-0.1,0.5-0.2,0.8-0.2,1.2
	c-0.1,0.4-0.1,0.9-0.2,1.3c0,0.5-0.1,1.2-0.1,2.2s-0.1,2.3-0.2,4c-0.1,2.6-0.1,5.6-0.2,8.8c-0.1,3.2-0.1,6.5-0.1,9.5v12.3
	c3.1,0,5.9-0.1,8.6-0.4c2.6-0.3,5.2-0.8,7.7-1.6c2.2-0.6,4.3-1.7,6.2-3c1.6-1.2,3.1-2.6,4.2-4.3c1.1-1.6,1.9-3.4,2.4-5.2
	c0.5-1.9,0.8-3.9,0.8-5.8C20.6,401.1,19.7,397.6,17.8,394.6z"/>
<path d="M99.1,403.1c-2.7-3.4-5.6-6.7-8.7-9.7c-2.4-2.4-5.1-4.4-8.1-5.9c-2.2-0.8-4.5-1.3-6.9-1.5c-3.8-0.4-7.7-0.6-11.6-0.6
	c-0.8,0-1.6,0-2.6,0l-2.8,0.1l-2.5,0.1c-0.8,0-1.4,0-1.7,0c-0.1,0.5-0.2,0.9-0.3,1.3c-0.1,0.5-0.2,1-0.3,1.6s-0.2,1.4-0.2,2.3
	s-0.1,2.1-0.2,3.4c-0.1,2.6-0.1,5.5-0.2,8.6c-0.1,3.1-0.1,6-0.1,8.8v10.7h2c1.2,0,2.5,0,4-0.1s3-0.2,4.5-0.3
	c1.3-0.1,2.6-0.2,3.9-0.5c2.2-0.4,4.4-1.2,6.4-2.3c1.5-0.9,2.7-2.1,3.7-3.5c0.9-1.3,1.5-2.9,1.9-4.4c0.4-1.6,0.7-3.3,1-5.2h1.4v36
	h-1.4c-0.7-2.6-1.5-5.1-2.6-7.6c-0.9-2.3-2.2-4.4-4-6.1c-1.3-1.2-2.9-2.2-4.5-2.8c-1.8-0.7-3.7-1.1-5.7-1.2l-2.9-0.2
	c-0.8,0-1.6,0-2.4,0h-5.3v13.8c0,2.1,0,4,0.1,5.8c0,1.8,0.1,3.3,0.1,4.5c0.1,2.4,0.2,4.6,0.4,6.8c0,1.7,0.5,3.3,1.3,4.8
	c0.8,1.2,2,2,3.4,2.4c2.3,0.7,4.6,1,7,1.1v1.1H29.4v-1.1c1.8-0.3,3.5-0.8,5.2-1.5c1.5-0.6,2.9-1.6,4-2.8c0.4-0.6,0.7-1.3,0.9-2
	c0.2-0.9,0.4-1.8,0.6-3s0.3-2.3,0.4-3.5s0.1-2.4,0.1-3.6s0-2.5,0.1-4.3s0.1-3.8,0.1-5.9s0.1-4.3,0.1-6.6v-28.2c0-1.3,0-2.7-0.1-4.1
	c0-1.4-0.1-2.8-0.2-4c-0.1-1.2-0.3-2.3-0.6-3.4c-0.2-0.8-0.5-1.6-1.1-2.2c-1-1.1-2.2-1.9-3.6-2.3c-1.6-0.4-3.3-0.7-4.9-1v-1.1h62.3
	l7.6,18.8L99.1,403.1z"/>
<path d="M120.2,464.4v-1.1c0.5,0,1.1-0.1,1.6-0.2c0.9-0.2,1.8-0.4,2.7-0.8c0.9-0.4,1.7-0.9,2.5-1.6c0.7-0.7,1.1-1.6,1.1-2.6
	c-0.1-1.1-0.3-2.2-0.6-3.3c-0.4-1.5-1-3.4-1.7-5.6s-1.6-4.7-2.6-7.3s-2-5.5-3.1-8.4H90.3c-1.1,2.8-2.2,5.5-3.2,8.1s-2.1,5.2-3.1,7.8
	c-1.6,4-2.4,6.8-2.4,8.5c0,0.9,0.3,1.8,0.9,2.4c0.7,0.7,1.4,1.2,2.3,1.6c1,0.4,2,0.7,3,0.9c1.1,0.2,2.1,0.4,3.1,0.5v1.1h-24v-1.2
	c1.8-0.2,3.5-0.7,5-1.6c0.9-0.4,1.7-1,2.4-1.7c1-1.1,1.8-2.4,2.6-3.7c1.6-2.8,3.1-5.7,4.4-8.6c1.6-3.5,3.3-7.5,5.3-12l6-13.8
	c2.1-4.7,4.1-9.5,6.1-14.3s3.9-9.3,5.7-13.5l-1.1-2.5c1.3-0.6,2.6-1.3,3.7-2.2c1-0.8,2-1.6,2.9-2.6c0.8-0.8,1.4-1.7,2.1-2.6
	c0.6-0.8,1-1.5,1.3-2h0.9c2.3,6.2,4.5,12.1,6.6,17.6c2.1,5.6,4.1,10.9,6,16.1s3.8,10.2,5.6,15s3.6,9.6,5.4,14.3
	c0.8,2.3,1.6,4.2,2.3,5.8l2.4,5.2c0.3,0.5,0.6,1.1,1,1.6c0.6,0.8,1.3,1.6,2.1,2.3c1,0.9,2,1.6,3.2,2.1c1.4,0.6,2.9,1,4.5,1v1.3
	L120.2,464.4z M105.6,396.5c-0.4,1-1.1,2.5-2,4.6s-1.9,4.6-3.2,7.6s-2.7,6.4-4.2,10.1l-5,12.3h27.9c-1.3-3.3-2.6-6.7-3.9-10.1
	s-2.6-6.6-3.8-9.7s-2.4-5.9-3.4-8.5S106.2,398.1,105.6,396.5z"/>
<path d="M193.7,464.4h-67.5l-0.4-0.8l56.7-77.8h-14.1c-2.7,0-5.2,0-7.7,0.1s-4.4,0.1-5.8,0.2c-2.6,0.1-5.2,0.7-7.7,1.7
	c-2.2,0.9-4.3,2.2-6.2,3.7c-0.9,0.8-2,1.8-3.3,3.1c-1.3,1.3-2.6,2.8-4,4.3s-2.6,3.2-3.9,4.8c-1.1,1.4-2.1,2.9-3.1,4.4l-1.2-0.5
	l8.2-23.9c1.1,0.1,2.9,0.1,5.7,0.2l9.9,0.1c3.8,0,7.9,0,12.3,0h35.8l0.3,0.7l-56.5,77.6c3.7,0.1,7.1,0.1,10.1,0.1h9.1
	c1.3,0,2.9,0,4.9-0.1s4-0.2,6.2-0.4c6.1-0.7,11.8-3.2,16.3-7.3c5.1-4.6,9.5-9.9,12.8-15.9l1.2,0.4L193.7,464.4z"/>
<polygon points="114.5,468.4 116.3,468.3 116.3,469.5 114.5,469.5 "/>
<path class="st0" d="M112.1,160.5v-2.1c1,0,2.3-0.2,3.4-0.3c1.9-0.3,3.8-0.8,5.7-1.5c1.9-0.8,3.6-1.7,5.3-3.1
	c1.5-1.4,2.3-3.1,2.3-5.1c-0.3-2.1-0.6-4.3-1.3-6.4c-0.9-2.9-2.1-6.6-3.6-10.9c-1.5-4.3-3.4-9.1-5.5-14.1c-2.1-5-4.3-10.7-6.5-16.3
	H48.9c-2.3,5.4-4.7,10.7-6.8,15.7s-4.4,10.1-6.5,15.2c-3.4,7.8-5,13.2-5,16.6c0,1.7,0.6,3.5,1.9,4.6c1.5,1.4,2.9,2.3,4.9,3.1
	c2.1,0.8,4.3,1.4,6.3,1.7c2.3,0.3,4.4,0.8,6.5,0.9v2.1H-0.3v-2.3c3.8-0.3,7.4-1.4,10.6-3.1c1.9-0.8,3.6-2,5-3.4
	c2.1-2.1,3.8-4.6,5.5-7.2c3.4-5.4,6.5-11.1,9.3-16.7c3.4-6.8,6.9-14.6,11.2-23.3L54,78c4.3-9.1,8.7-18.4,12.8-27.8
	C71.1,40.8,75,32.1,78.9,24l-2.3-4.9c2.8-1.2,5.3-2.5,7.5-4.3c2.1-1.5,4.3-3.1,6.2-5.1c1.6-1.5,2.9-3.4,4.4-5.1
	c1.3-1.5,2.1-2.9,2.8-3.9h1.9c4.9,12,9.4,23.5,14,34.2c4.4,10.9,8.7,21.2,12.7,31.3c4,10.1,8,19.8,11.8,29.2
	c3.8,9.4,7.5,18.6,11.4,27.8c1.6,4.5,3.4,8.1,4.9,11.2l5,10.1c0.6,0.9,1.3,2.1,2.1,3.1c1.3,1.5,2.8,3.1,4.4,4.5
	c2.1,1.7,4.3,3.1,6.8,4.1c2.9,1.2,6.2,2,9.4,2v2.5L112.1,160.5z M81,28.6c-0.9,2-2.3,4.9-4.3,8.9c-1.9,4.1-4,8.9-6.8,14.7
	s-5.7,12.4-8.8,19.6l-10.4,24h58.8c-2.8-6.4-5.5-13-8.2-19.6c-2.8-6.6-5.5-12.9-8-18.9s-4.9-11.5-7.2-16.6
	C83.8,35.8,82.6,31.7,81,28.6z"/>
<path class="st0" d="M245.5,160.2c-1.5-1.4-2.5-2.3-2.9-2.9s-1.3-1.4-2.1-2.3c-1-1.2-2.1-2.5-2.9-3.9c-1.3-1.7-2.9-4.1-5.4-7.6
	c-2.9-4.1-5.7-7.8-7.9-11.1s-4.5-6.6-6.9-9.7c-2.3-3.4-4.8-6.4-7.5-9.7c-2.8-3.4-6-6.9-9.8-11.1c-3.1-3.4-6.4-6.4-10.2-9.4
	c-3.4-2.8-7.3-4.6-11.4-5.4c-2.3-0.6-4.5-0.8-6.7-0.8c-1.5,0-3.1,0-5.4-0.2v24.7c0,6.9,0,12.9,0.3,17.7s0.4,8.8,0.4,12
	c0,2.9,0.9,5.8,2.5,8.2c1.9,2.5,4.4,4.5,7.3,5.8c4.5,2.1,9.8,3.4,15,3.4v2.1h-74.9v-2c3.8-0.6,7.5-1.4,11.2-2.5
	c3.4-0.9,6-2.8,8.3-5.2c0.9-1.2,1.5-2.5,1.9-3.9c0.4-2,0.9-3.9,1-5.8c0.3-2.1,0.4-4.5,0.6-6.9c0.3-2.5,0.3-4.9,0.3-7.2
	c0-2.3,0-4.9,0.3-8.3c0.3-3.5,0.3-7.4,0.3-11.5c0-4.1,0.3-8.3,0.3-12.9V38.6c0-2.5,0-5.2-0.3-8s-0.3-5.2-0.4-7.6
	c-0.3-2.1-0.6-4.5-1.3-6.6c-0.4-1.5-1-3.1-2.1-4.3c-2.1-2.1-4.8-3.7-7.9-4.6c-3.5-0.9-7-1.5-10.6-2.1V3.3h9.6c5.2,0,11.2,0,17.9-0.2
	c6.7-0.2,13.3,0,20,0h16.2c10.4,0,19.6,0.2,27.7,0.8c7.7,0.3,15.2,2.5,22.1,5.8c6.7,3.1,12.4,7.8,16.7,13.7c4.4,6.4,6.7,14,6.3,21.5
	c0,5.1-1,10-3.4,14.6c-2.1,4.3-4.8,8-8.3,11.2c-3.5,3.4-7.7,6.3-12.3,8.3c-4.8,2.3-9.6,4.3-14.8,5.8v0.6c2.9,1.5,5.4,3.4,7.7,5.7
	c2.8,2.5,5,5.4,7.3,8.2c3.9,5.4,8.6,11.5,13.1,17.9c4.8,6.4,8.9,12,12.7,16.9c4.5,6.4,10.2,12,16.8,16.6c5.8,3.5,12.3,5.8,19.1,6.8
	v2.1L245.5,160.2z M222.5,24.3c-4.1-5.8-10.2-10.5-17.1-13.4c-3.8-1.5-7.7-2.8-11.8-3.5c-4.1-0.8-8.6-1.2-13-1.2
	c-3.4,0-5.8,0-7.9,0.2s-3.5,0.3-4.5,0.3c-0.3,0.9-0.4,1.5-0.4,2.3c-0.3,0.8-0.3,1.7-0.4,2.5c0,0.9-0.3,2.3-0.3,4.3s-0.3,4.5-0.4,7.8
	c-0.4,5.1-0.4,10.9-0.6,17.1c-0.3,6.3-0.3,12.6-0.3,18.5v23.9c6.4,0,12.3-0.2,17.9-0.8c5.4-0.6,10.8-1.5,16.1-3.1
	c4.5-1.2,8.9-3.4,13-5.8c3.4-2.3,6.4-5.1,8.8-8.3c2.3-3.1,3.9-6.6,5-10.1c1-3.7,1.6-7.6,1.6-11.2C228.3,37,226.4,30.2,222.5,24.3z"
	/>
<path class="st0" d="M-85.4,60.8c1.9,7.6,4.3,15.4,7.3,22.6c2.3,5.8,5.3,11,9.3,15.6c3.1,2.9,6.8,5.3,10.7,7.3
	c6.3,3.2,12.8,6.3,19.6,9c1.4,0.6,2.8,1,4.5,1.7l4.9,1.7l4.4,1.5c1.4,0.6,2.4,0.9,2.9,1.2c0.6-0.8,1-1.4,1.5-2.1
	c0.6-0.8,1.1-1.6,1.8-2.5c0.6-0.9,1.5-2.3,2.1-3.8c0.6-1.5,1.9-3.6,3-5.7c2.3-4.4,4.5-9.4,7.3-14.6c2.8-5.2,5-10.2,7.3-15.1
	l8.6-18.4l-3.5-1.4c-2.1-0.8-4.3-1.7-7-2.5c-2.6-0.8-5.4-1.7-8-2.5c-2.4-0.7-4.7-1.4-7.2-1.9c-4.1-0.8-8.6-0.9-13-0.5
	c-3.3,0.5-6.4,1.7-9.2,3.5c-2.6,1.6-4.9,3.9-6.8,6.3c-2,2.4-3.9,5.2-5.9,8.2l-2.4-0.9l28.9-61.8l2.4,0.9c-0.9,5-1.5,9.8-1.6,14.8
	c-0.3,4.5,0.3,9,2,13.2c1.3,3,3.3,5.8,5.5,7.9c2.5,2.4,5.5,4.4,8.9,6l4.9,2.3c1.4,0.6,2.8,1,4.1,1.6l9.2,3.6l11.1-23.7
	c1.6-3.6,3.3-6.8,4.5-10.1c1.4-3.1,2.5-5.8,3.4-7.8c1.8-4.2,3.4-8,4.8-11.9c1.4-2.9,1.8-6,1.6-9.1c-0.4-2.7-1.9-4.9-4-6.5
	c-3.1-2.3-6.8-4.4-10.9-6.3l0.9-1.9l62,24.6l-0.9,1.9c-3.4-0.7-6.7-1-10.2-1c-3,0-6.3,0.8-9.2,2.1C63.1,7.1,61.9,8,61.1,9
	c-1,1.4-2.1,2.8-3.4,4.7s-2.4,3.7-3.5,5.8c-1.1,2-2.1,4.1-3,6.1c-0.9,2.1-2,4.3-3.6,7.3c-1.6,3-3.3,6.5-4.9,10.1s-3.6,7.3-5.4,11.2
	l-22.6,48.4c-1,2.2-2.1,4.6-3.1,7.1c-1.1,2.4-2,4.9-2.9,7.1c-0.8,2.1-1.4,4.2-1.6,6.3c-0.3,1.5-0.4,3.1,0.1,4.5
	c0.9,2.5,2.3,4.7,4.4,6.4c2.4,1.7,5.2,3.5,7.7,5.1l-0.9,1.9L-89.7,98.2l1.9-37.5L-85.4,60.8z"/>
<path d="M382.1,295.7v-1.1c0.5,0,1.1-0.1,1.6-0.2c0.9-0.2,1.8-0.4,2.7-0.8s1.7-0.9,2.5-1.6c0.7-0.7,1.1-1.6,1.1-2.6
	c-0.1-1.1-0.3-2.2-0.6-3.3c-0.4-1.5-1-3.4-1.7-5.6s-1.6-4.7-2.6-7.3s-2-5.5-3.1-8.4h-29.8c-1.1,2.8-2.2,5.5-3.2,8.1
	s-2.1,5.2-3.1,7.8c-1.6,4-2.4,6.8-2.4,8.5c0,0.9,0.3,1.8,0.9,2.4c0.7,0.7,1.4,1.2,2.3,1.6c1,0.4,2,0.7,3,0.9
	c1.1,0.2,2.1,0.4,3.1,0.5v1.1h-24v-1.2c1.8-0.2,3.5-0.7,5-1.6c0.9-0.4,1.7-1,2.4-1.7c1-1.1,1.8-2.4,2.6-3.7c1.6-2.8,3.1-5.7,4.4-8.6
	c1.6-3.5,3.3-7.5,5.3-12l6-13.8c2.1-4.7,4.1-9.5,6.1-14.3s3.9-9.3,5.7-13.5l-1.1-2.5c1.3-0.6,2.6-1.3,3.7-2.2c1-0.8,2-1.6,2.9-2.6
	c0.8-0.8,1.4-1.7,2.1-2.6c0.6-0.8,1-1.5,1.3-2h0.9c2.3,6.2,4.5,12.1,6.6,17.6c2.1,5.6,4.1,10.9,6,16.1s3.8,10.2,5.6,15
	c1.8,4.8,3.6,9.6,5.4,14.3c0.8,2.3,1.6,4.2,2.3,5.8l2.4,5.2c0.3,0.5,0.6,1.1,1,1.6c0.6,0.8,1.3,1.6,2.1,2.3c1,0.9,2,1.6,3.2,2.1
	c1.4,0.6,2.9,1,4.5,1v1.3L382.1,295.7L382.1,295.7z M367.5,227.8c-0.4,1-1.1,2.5-2,4.6s-1.9,4.6-3.2,7.6c-1.3,3-2.7,6.4-4.2,10.1
	l-5,12.3H381c-1.3-3.3-2.6-6.7-3.9-10.1c-1.3-3.4-2.6-6.6-3.8-9.7c-1.2-3.1-2.4-5.9-3.4-8.5C368.9,231.5,368.1,229.4,367.5,227.8z"
	/>
<path d="M455.6,295.7h-67.5l-0.4-0.8l56.7-77.8h-14.1c-2.7,0-5.2,0-7.7,0.1s-4.4,0.1-5.8,0.2c-2.6,0.1-5.2,0.7-7.7,1.7
	c-2.2,0.9-4.3,2.2-6.2,3.7c-0.9,0.8-2,1.8-3.3,3.1s-2.6,2.8-4,4.3s-2.6,3.2-3.9,4.8c-1.1,1.4-2.1,2.9-3.1,4.4l-1.2-0.5l8.2-23.9
	c1.1,0.1,2.9,0.1,5.7,0.2l9.9,0.1c3.8,0,7.9,0,12.3,0h35.8l0.3,0.7l-56.5,77.6c3.7,0.1,7.1,0.1,10.1,0.1h9.1c1.3,0,2.9,0,4.9-0.1
	s4-0.2,6.2-0.4c6.1-0.7,11.8-3.2,16.3-7.3c5.1-4.6,9.5-9.9,12.8-15.9l1.2,0.4L455.6,295.7z"/>
<polygon points="376.4,299.7 378.2,299.6 378.2,300.8 376.4,300.8 "/>
<rect x="-35.1" y="-38.5" class="st0" width="60.4" height="242.3"/>
<rect x="159.1" y="-40.9" class="st0" width="89.9" height="242.3"/>
<rect x="-11.1" y="-50.3" class="st0" width="263.1" height="55.6"/>
<g>
	<rect x="-533.1" y="48.9" class="st1" width="96.9" height="272.5"/>
	<rect x="-324.4" y="48.9" class="st1" width="127.9" height="272.5"/>
	
		<rect x="-392.7" y="-85.4" transform="matrix(-2.187841e-02 0.9998 -0.9998 -2.187841e-02 -300.8321 440.5733)" class="st1" width="53.6" height="317"/>
	
		<rect x="-404.5" y="125.9" transform="matrix(-7.967885e-03 -1 1 -7.967885e-03 -656.1005 -82.0456)" class="st1" width="71.6" height="317"/>
</g>
</svg>
