<?xml version="1.0" encoding="utf-8"?>
<!-- Generator: Adobe Illustrator 24.3.0, SVG Export Plug-In . SVG Version: 6.00 Build 0)  -->
<svg version="1.1" id="Layer_1" xmlns="http://www.w3.org/2000/svg" xmlns:xlink="http://www.w3.org/1999/xlink" x="0px" y="0px"
	 viewBox="0 0 32 32" style="enable-background:new 0 0 32 32;" xml:space="preserve">
<style type="text/css">
	.st0{fill:#2F80ED;}
	.st1{fill:#EB5757;}
	.st2{fill:#6FCF97;}
	.st3{fill:#9B51E0;}
	.st4{fill:#56CCF2;}
	.st5{fill:#F2C94C;}
	.st6{fill:#F2994A;}
	.st7{fill:#27AE60;}
	.st8{fill:#FF86DD;}
</style>
<rect class="st0" width="10.7" height="10.7"/>
<path class="st1" d="M5.3,10.7L5.3,10.7c2.9,0,5.3,2.4,5.3,5.3v0c0,2.9-2.4,5.3-5.3,5.3h0C2.4,21.3,0,18.9,0,16v0
	C0,13.1,2.4,10.7,5.3,10.7z"/>
<rect y="21.3" class="st2" width="10.7" height="10.7"/>
<rect x="36.8" y="-1.6" class="st3" width="10.7" height="10.7"/>
<rect x="10.7" y="10.7" class="st4" width="10.7" height="10.7"/>
<path class="st5" d="M16,21.3L16,21.3c2.9,0,5.3,2.4,5.3,5.3v0c0,2.9-2.4,5.3-5.3,5.3h0c-2.9,0-5.3-2.4-5.3-5.3v0
	C10.7,23.7,13.1,21.3,16,21.3z"/>
<path class="st6" d="M26.7,0L26.7,0C29.6,0,32,2.4,32,5.3v0c0,2.9-2.4,5.3-5.3,5.3h0c-2.9,0-5.3-2.4-5.3-5.3v0
	C21.3,2.4,23.7,0,26.7,0z"/>
<rect x="21.3" y="10.7" class="st7" width="10.7" height="10.7"/>
<rect x="21.3" y="21.3" class="st8" width="10.7" height="10.7"/>
</svg>
