<?xml version="1.0" standalone="no"?>
<!DOCTYPE svg PUBLIC "-//W3C//DTD SVG 20010904//EN"
 "http://www.w3.org/TR/2001/REC-SVG-20010904/DTD/svg10.dtd">
<svg version="1.0" xmlns="http://www.w3.org/2000/svg"
 width="700.000000pt" height="700.000000pt" viewBox="0 0 700.000000 700.000000"
 preserveAspectRatio="xMidYMid meet">
<metadata>
Created by potrace 1.14, written by Peter Selinger 2001-2017
</metadata>
<g transform="translate(0.000000,700.000000) scale(0.100000,-0.100000)"
fill="#000000" stroke="none">
<path d="M975 6678 c-360 -48 -658 -323 -739 -679 -22 -97 -24 -126 -25 -446
l-2 -343 1598 0 1598 1 391 387 c215 213 549 543 742 734 194 190 352 349 352
351 0 9 -3850 4 -3915 -5z"/>
<path d="M5179 6680 c-5 -25 -2 -1463 3 -1466 9 -6 1457 -6 1466 0 4 2 7 204
6 448 -1 459 -3 485 -45 601 -74 203 -277 372 -496 413 -44 8 -932 13 -934 4z"/>
<path d="M4321 5951 c-399 -399 -726 -730 -728 -736 -2 -7 221 -9 659 -8 365
2 695 3 733 3 l70 0 0 735 c0 404 -2 735 -5 734 -3 -1 -331 -328 -729 -728z"/>
<path d="M3586 5091 c-3 -9 -4 -341 -4 -738 l1 -723 738 0 739 0 0 738 0 738
-735 0 c-656 0 -735 -2 -739 -15z"/>
<path d="M5183 4375 c0 -404 3 -733 6 -731 3 1 334 166 735 365 400 200 724
367 720 371 -9 8 -1449 730 -1456 730 -3 0 -5 -331 -5 -735z"/>
<path d="M211 5075 c-9 -12 -9 -1461 0 -1469 7 -7 1616 -9 1627 -2 9 5 8 1464
-2 1473 -11 11 -1617 9 -1625 -2z"/>
<path d="M2615 5068 c-320 -41 -578 -286 -634 -603 -66 -368 144 -719 501
-840 69 -24 103 -29 203 -31 133 -3 207 9 316 55 342 143 526 532 423 891
-100 347 -447 574 -809 528z"/>
<path d="M4889 3095 c-377 -379 -930 -938 -1024 -1034 l-39 -41 1414 2 1414 3
0 738 c1 405 -1 737 -4 738 -3 1 -308 2 -679 3 l-674 1 -408 -410z"/>
<path d="M3599 3478 c-4 -107 -3 -1432 1 -1439 3 -4 336 322 740 726 l735 735
-738 0 -737 0 -1 -22z"/>
<path d="M310 3480 l-105 -5 0 -737 c0 -649 2 -738 15 -739 8 0 745 -1 1638
-2 l1622 -2 0 743 -1 742 -67 0 c-943 4 -3025 4 -3102 0z"/>
<path d="M4175 1935 c-73 -16 -171 -52 -205 -75 -14 -9 -44 -29 -67 -44 -99
-65 -211 -206 -258 -325 -146 -363 10 -774 361 -949 145 -73 340 -93 502 -53
338 84 563 373 563 721 0 347 -223 632 -562 720 -82 21 -251 24 -334 5z"/>
<path d="M2010 1870 c-1 -8 -2 -340 -3 -738 l-2 -722 65 -1 c83 -1 1334 -1
1380 0 l35 1 0 738 0 737 -737 0 c-655 0 -738 -1 -738 -15z"/>
<path d="M212 1461 c5 -451 6 -461 66 -596 108 -244 327 -413 589 -455 70 -11
1029 -17 1040 -6 3 3 6 335 6 738 l-1 733 -851 1 -852 0 3 -415z"/>
<path d="M5185 1871 c-1 -4 -3 -338 -3 -743 l0 -736 522 2 c516 2 522 2 586
25 137 49 256 154 316 280 51 107 52 120 54 667 l1 510 -736 0 c-405 0 -738
-2 -740 -5z"/>
</g>
</svg>
