<svg xmlns="http://www.w3.org/2000/svg" viewBox="0 0 131 71" preserveAspectRatio="xMidYMid meet"><defs><clipPath id="__lottie_element_2"><rect width="131" height="71" x="0" y="0"></rect></clipPath><clipPath id="__lottie_element_4"><path d="M0,0 L300,0 L300,162 L0,162z"></path></clipPath><clipPath id="__lottie_element_8"><path d="M0,0 L155,0 L155,155 L0,155z"></path></clipPath><mask id="__lottie_element_11" mask-type="alpha"><g style="display: block;" transform="matrix(1,0,0,1,77.4990005493164,77.4990005493164)" opacity="1"><g opacity="1" transform="matrix(2,0,0,2,0,0)"><path fill="rgb(6,158,8)" fill-opacity="1" d=" M-35,0 C-35,-19.325000762939453 -19.281999588012695,-35 0,-35 C19.325000762939453,-35 35,-19.325000762939453 35,0 C35,19.325000762939453 19.325000762939453,35 0,35 C-19.325000762939453,35 -35,19.325000762939453 -35,0z"></path></g></g></mask><mask id="__lottie_element_17" mask-type="alpha"><g style="display: block;" transform="matrix(1,0,0,1,77.4990005493164,77.4990005493164)" opacity="1"><g opacity="1" transform="matrix(2,0,0,2,0,0)"><path fill="rgb(6,158,8)" fill-opacity="1" d=" M-35,0 C-35,-19.325000762939453 -19.281999588012695,-35 0,-35 C19.325000762939453,-35 35,-19.325000762939453 35,0 C35,19.325000762939453 19.325000762939453,35 0,35 C-19.325000762939453,35 -35,19.325000762939453 -35,0z"></path></g></g></mask><mask id="__lottie_element_26" mask-type="alpha"><g clip-path="url(#__lottie_element_27)" transform="matrix(1,0,0,1,19.900001525878906,11)" opacity="1" style="display: none;"><rect width="140" height="140" fill="#ffffff"></rect></g></mask><clipPath id="__lottie_element_27"><path fill="#ffffff" clip-rule="nonzero" d=" M70,0 C31.34000015258789,0 0,31.34000015258789 0,70 C0,108.66000366210938 31.34000015258789,140 70,140 C108.66000366210938,140 140,108.66000366210938 140,70 C140,31.34000015258789 108.66000366210938,0 70,0" fill-opacity="1"></path></clipPath><mask id="__lottie_element_32" mask-type="alpha"><g mask="url(#__lottie_element_33)" transform="matrix(0.9979999661445618,0,0,0.9979999661445618,-0.07927071303129196,-0.33699098229408264)" opacity="1" style="display: block;"><rect width="300" height="162" fill="#bdf0bc"></rect></g></mask><mask id="__lottie_element_33"><rect fill="#ffffff" width="300" height="162" transform="matrix(NaN,NaN,NaN,NaN,NaN,NaN)"></rect><path fill="#000000" clip-rule="nonzero" d=" M206,11 C167.06399536132812,11 135.5,42.56399917602539 135.5,81.5 C135.5,120.43599700927734 167.06399536132812,152 206,152 C244.93600463867188,152 276.5,120.43599700927734 276.5,81.5 C276.5,42.56399917602539 244.93600463867188,11 206,11" fill-opacity="1"></path></mask></defs><g clip-path="url(#__lottie_element_2)"><g clip-path="url(#__lottie_element_4)" transform="matrix(0.5,0,0,0.5,-9.5,-5)" opacity="1" style="display: block;"><g transform="matrix(1.0720000267028809,0,0,1.0720000267028809,89.93000030517578,81)" opacity="1" style="display: none;"><g opacity="1" transform="matrix(2,0,0,2,0,0)"><path fill="rgb(6,117,196)" fill-opacity="1" d=" M8.807000160217285,27.43000030517578 C8.807000160217285,27.43000030517578 0.4230000078678131,4.744999885559082 0.4230000078678131,4.744999885559082 C-2.177000045776367,12.414999961853027 -4.809999942779541,20.084999084472656 -7.442999839782715,27.81999969482422 C-5.103000164031982,28.53499984741211 -2.568000078201294,28.89299964904785 0,28.89299964904785 C3.0869998931884766,28.89299964904785 6.01200008392334,28.37299919128418 8.807000160217285,27.43000030517578z M-28.89299964904785,0 C-28.89299964904785,11.472999572753906 -22.360000610351562,21.61199951171875 -12.675000190734863,26.29199981689453 C-17.322999954223633,13.64900016784668 -21.937999725341797,0.9760000109672546 -26.55299949645996,-11.666999816894531 C-28.145000457763672,-8.0600004196167 -28.89299964904785,-4.224999904632568 -28.89299964904785,0z M25.479999542236328,-13.812000274658203 C26.488000869750977,-6.077000141143799 24.863000869750977,-2.0799999237060547 24.08300018310547,0 C20.898000717163086,8.385000228881836 17.743999481201172,16.868000030517578 14.592000007629395,25.28499984741211 C23.270000457763672,20.280000686645508 28.89299964904785,10.692999839782715 28.89299964904785,0 C28.89299964904785,-5.005000114440918 27.7549991607666,-9.619000434875488 25.479999542236328,-13.812000274658203z M-18.29800033569336,-12.28499984741211 C-18.29800033569336,-12.28499984741211 -7.215000152587891,17.45199966430664 -7.215000152587891,17.45199966430664 C-7.215000152587891,17.45199966430664 -1.3329999446868896,-1.4950000047683716 -1.3329999446868896,-1.4950000047683716 C-1.3329999446868896,-1.4950000047683716 -5.427999973297119,-12.57699966430664 -5.427999973297119,-12.57699966430664 C-5.427999973297119,-12.57699966430664 -8.416999816894531,-12.836999893188477 -8.416999816894531,-12.836999893188477 C-10.041999816894531,-12.902000427246094 -9.847999572753906,-16.900999069213867 -8.222999572753906,-16.80299949645996 C-8.222999572753906,-16.80299949645996 -3.4769999980926514,-16.413000106811523 -0.6499999761581421,-16.413000106811523 C2.4049999713897705,-16.413000106811523 7.085000038146973,-16.80299949645996 7.085000038146973,-16.80299949645996 C8.710000038146973,-16.900999069213867 8.904999732971191,-13 7.28000020980835,-12.836999893188477 C7.28000020980835,-12.836999893188477 6.369999885559082,-12.350000381469727 4.614999771118164,-12.28499984741211 C4.614999771118164,-12.28499984741211 14.461999893188477,14.916999816894531 14.461999893188477,14.916999816894531 C14.461999893188477,14.916999816894531 19.011999130249023,3.509000062942505 19.011999130249023,-1.3329999446868896 C19.011999130249023,-4.9079999923706055 18.36199951171875,-7.34499979019165 17.225000381469727,-9.32699966430664 C15.762999534606934,-11.732000350952148 14.300000190734863,-13.746999740600586 14.300000190734863,-16.152000427246094 C14.300000190734863,-20.018999099731445 17.452999114990234,-21.645000457763672 19.663000106811523,-21.288000106811523 C14.463000297546387,-26.065000534057617 7.572000026702881,-28.89299964904785 0,-28.89299964904785 C-10.17300033569336,-28.89299964904785 -19.110000610351562,-23.756999969482422 -24.277000427246094,-15.82699966430664 C-23.594999313354492,-15.793999671936035 -22.97800064086914,-15.795000076293945 -22.39299964904785,-15.795000076293945 C-19.402999877929688,-15.795000076293945 -14.6899995803833,-16.152000427246094 -14.6899995803833,-16.152000427246094 C-13.0649995803833,-16.216999053955078 -12.869999885559082,-12.739999771118164 -14.494999885559082,-12.545000076293945 C-14.494999885559082,-12.545000076293945 -16.510000228881836,-12.350000381469727 -18.29800033569336,-12.28499984741211z M0,-32.5 C17.908000946044922,-32.5 32.5,-17.908000946044922 32.5,0 C32.5,17.940000534057617 17.908000946044922,32.5 0,32.5 C-17.940000534057617,32.5 -32.5,17.940000534057617 -32.5,0 C-32.5,-17.908000946044922 -17.940000534057617,-32.5 0,-32.5z"></path></g></g><g mask="url(#__lottie_element_32)" style="display: block;"><g transform="matrix(1.0720000267028809,0,0,1.0720000267028809,89.93000030517578,81)" opacity="1"><g opacity="1" transform="matrix(2,0,0,2,0,0)"><path fill="rgb(6,117,196)" fill-opacity="1" d=" M8.807000160217285,27.43000030517578 C8.807000160217285,27.43000030517578 0.4230000078678131,4.744999885559082 0.4230000078678131,4.744999885559082 C-2.177000045776367,12.414999961853027 -4.809999942779541,20.084999084472656 -7.442999839782715,27.81999969482422 C-5.103000164031982,28.53499984741211 -2.568000078201294,28.89299964904785 0,28.89299964904785 C3.0869998931884766,28.89299964904785 6.01200008392334,28.37299919128418 8.807000160217285,27.43000030517578z M-28.89299964904785,0 C-28.89299964904785,11.472999572753906 -22.360000610351562,21.61199951171875 -12.675000190734863,26.29199981689453 C-17.322999954223633,13.64900016784668 -21.937999725341797,0.9760000109672546 -26.55299949645996,-11.666999816894531 C-28.145000457763672,-8.0600004196167 -28.89299964904785,-4.224999904632568 -28.89299964904785,0z M25.479999542236328,-13.812000274658203 C26.488000869750977,-6.077000141143799 24.863000869750977,-2.0799999237060547 24.08300018310547,0 C20.898000717163086,8.385000228881836 17.743999481201172,16.868000030517578 14.592000007629395,25.28499984741211 C23.270000457763672,20.280000686645508 28.89299964904785,10.692999839782715 28.89299964904785,0 C28.89299964904785,-5.005000114440918 27.7549991607666,-9.619000434875488 25.479999542236328,-13.812000274658203z M-18.29800033569336,-12.28499984741211 C-18.29800033569336,-12.28499984741211 -7.215000152587891,17.45199966430664 -7.215000152587891,17.45199966430664 C-7.215000152587891,17.45199966430664 -1.3329999446868896,-1.4950000047683716 -1.3329999446868896,-1.4950000047683716 C-1.3329999446868896,-1.4950000047683716 -5.427999973297119,-12.57699966430664 -5.427999973297119,-12.57699966430664 C-5.427999973297119,-12.57699966430664 -8.416999816894531,-12.836999893188477 -8.416999816894531,-12.836999893188477 C-10.041999816894531,-12.902000427246094 -9.847999572753906,-16.900999069213867 -8.222999572753906,-16.80299949645996 C-8.222999572753906,-16.80299949645996 -3.4769999980926514,-16.413000106811523 -0.6499999761581421,-16.413000106811523 C2.4049999713897705,-16.413000106811523 7.085000038146973,-16.80299949645996 7.085000038146973,-16.80299949645996 C8.710000038146973,-16.900999069213867 8.904999732971191,-13 7.28000020980835,-12.836999893188477 C7.28000020980835,-12.836999893188477 6.369999885559082,-12.350000381469727 4.614999771118164,-12.28499984741211 C4.614999771118164,-12.28499984741211 14.461999893188477,14.916999816894531 14.461999893188477,14.916999816894531 C14.461999893188477,14.916999816894531 19.011999130249023,3.509000062942505 19.011999130249023,-1.3329999446868896 C19.011999130249023,-4.9079999923706055 18.36199951171875,-7.34499979019165 17.225000381469727,-9.32699966430664 C15.762999534606934,-11.732000350952148 14.300000190734863,-13.746999740600586 14.300000190734863,-16.152000427246094 C14.300000190734863,-20.018999099731445 17.452999114990234,-21.645000457763672 19.663000106811523,-21.288000106811523 C14.463000297546387,-26.065000534057617 7.572000026702881,-28.89299964904785 0,-28.89299964904785 C-10.17300033569336,-28.89299964904785 -19.110000610351562,-23.756999969482422 -24.277000427246094,-15.82699966430664 C-23.594999313354492,-15.793999671936035 -22.97800064086914,-15.795000076293945 -22.39299964904785,-15.795000076293945 C-19.402999877929688,-15.795000076293945 -14.6899995803833,-16.152000427246094 -14.6899995803833,-16.152000427246094 C-13.0649995803833,-16.216999053955078 -12.869999885559082,-12.739999771118164 -14.494999885559082,-12.545000076293945 C-14.494999885559082,-12.545000076293945 -16.510000228881836,-12.350000381469727 -18.29800033569336,-12.28499984741211z M0,-32.5 C17.908000946044922,-32.5 32.5,-17.908000946044922 32.5,0 C32.5,17.940000534057617 17.908000946044922,32.5 0,32.5 C-17.940000534057617,32.5 -32.5,17.940000534057617 -32.5,0 C-32.5,-17.908000946044922 -17.940000534057617,-32.5 0,-32.5z"></path></g></g></g><g mask="url(#__lottie_element_26)" style="display: none;"><g transform="matrix(1.0720000267028809,0,0,1.0720000267028809,89.93000030517578,81)" opacity="1"><g opacity="1" transform="matrix(2,0,0,2,0,0)"><path fill="rgb(6,158,8)" fill-opacity="1" d=" M8.807000160217285,27.43000030517578 C8.807000160217285,27.43000030517578 0.4230000078678131,4.744999885559082 0.4230000078678131,4.744999885559082 C-2.177000045776367,12.414999961853027 -4.809999942779541,20.084999084472656 -7.442999839782715,27.81999969482422 C-5.103000164031982,28.53499984741211 -2.568000078201294,28.89299964904785 0,28.89299964904785 C3.0869998931884766,28.89299964904785 6.01200008392334,28.37299919128418 8.807000160217285,27.43000030517578z M-28.89299964904785,0 C-28.89299964904785,11.472999572753906 -22.360000610351562,21.61199951171875 -12.675000190734863,26.29199981689453 C-17.322999954223633,13.64900016784668 -21.937999725341797,0.9760000109672546 -26.55299949645996,-11.666999816894531 C-28.145000457763672,-8.0600004196167 -28.89299964904785,-4.224999904632568 -28.89299964904785,0z M25.479999542236328,-13.812000274658203 C26.488000869750977,-6.077000141143799 24.863000869750977,-2.0799999237060547 24.08300018310547,0 C20.898000717163086,8.385000228881836 17.743999481201172,16.868000030517578 14.592000007629395,25.28499984741211 C23.270000457763672,20.280000686645508 28.89299964904785,10.692999839782715 28.89299964904785,0 C28.89299964904785,-5.005000114440918 27.7549991607666,-9.619000434875488 25.479999542236328,-13.812000274658203z M-18.29800033569336,-12.28499984741211 C-18.29800033569336,-12.28499984741211 -7.215000152587891,17.45199966430664 -7.215000152587891,17.45199966430664 C-7.215000152587891,17.45199966430664 -1.3329999446868896,-1.4950000047683716 -1.3329999446868896,-1.4950000047683716 C-1.3329999446868896,-1.4950000047683716 -5.427999973297119,-12.57699966430664 -5.427999973297119,-12.57699966430664 C-5.427999973297119,-12.57699966430664 -8.416999816894531,-12.836999893188477 -8.416999816894531,-12.836999893188477 C-10.041999816894531,-12.902000427246094 -9.847999572753906,-16.900999069213867 -8.222999572753906,-16.80299949645996 C-8.222999572753906,-16.80299949645996 -3.4769999980926514,-16.413000106811523 -0.6499999761581421,-16.413000106811523 C2.4049999713897705,-16.413000106811523 7.085000038146973,-16.80299949645996 7.085000038146973,-16.80299949645996 C8.710000038146973,-16.900999069213867 8.904999732971191,-13 7.28000020980835,-12.836999893188477 C7.28000020980835,-12.836999893188477 6.369999885559082,-12.350000381469727 4.614999771118164,-12.28499984741211 C4.614999771118164,-12.28499984741211 14.461999893188477,14.916999816894531 14.461999893188477,14.916999816894531 C14.461999893188477,14.916999816894531 19.011999130249023,3.509000062942505 19.011999130249023,-1.3329999446868896 C19.011999130249023,-4.9079999923706055 18.36199951171875,-7.34499979019165 17.225000381469727,-9.32699966430664 C15.762999534606934,-11.732000350952148 14.300000190734863,-13.746999740600586 14.300000190734863,-16.152000427246094 C14.300000190734863,-20.018999099731445 17.452999114990234,-21.645000457763672 19.663000106811523,-21.288000106811523 C14.463000297546387,-26.065000534057617 7.572000026702881,-28.89299964904785 0,-28.89299964904785 C-10.17300033569336,-28.89299964904785 -19.110000610351562,-23.756999969482422 -24.277000427246094,-15.82699966430664 C-23.594999313354492,-15.793999671936035 -22.97800064086914,-15.795000076293945 -22.39299964904785,-15.795000076293945 C-19.402999877929688,-15.795000076293945 -14.6899995803833,-16.152000427246094 -14.6899995803833,-16.152000427246094 C-13.0649995803833,-16.216999053955078 -12.869999885559082,-12.739999771118164 -14.494999885559082,-12.545000076293945 C-14.494999885559082,-12.545000076293945 -16.510000228881836,-12.350000381469727 -18.29800033569336,-12.28499984741211z M0,-32.5 C17.908000946044922,-32.5 32.5,-17.908000946044922 32.5,0 C32.5,17.940000534057617 17.908000946044922,32.5 0,32.5 C-17.940000534057617,32.5 -32.5,17.940000534057617 -32.5,0 C-32.5,-17.908000946044922 -17.940000534057617,-32.5 0,-32.5z"></path></g></g></g><g clip-path="url(#__lottie_element_8)" style="display: block;" transform="matrix(0.9979999661445618,0,0,0.9979999661445618,132.51800537109375,3.656006336212158)" opacity="1"><g style="display: block;" transform="matrix(1,0,0,1,77.4990005493164,77.4990005493164)" opacity="1"><g opacity="1" transform="matrix(2,0,0,2,0,0)"><path fill="rgb(6,158,8)" fill-opacity="1" d=" M-35,0 C-35,-19.325000762939453 -19.281999588012695,-35 0,-35 C19.325000762939453,-35 35,-19.325000762939453 35,0 C35,19.325000762939453 19.325000762939453,35 0,35 C-19.325000762939453,35 -35,19.325000762939453 -35,0z"></path></g></g><g mask="url(#__lottie_element_17)" style="display: block;"><g transform="matrix(1,0,0,1,77.4990005493164,77.4990005493164)" opacity="1"><g opacity="1" transform="matrix(2,0,0,2,0,0)"><path fill="rgb(255,255,255)" fill-opacity="1" d=" M1.7610000371932983,-5.882999897003174 C1.7610000371932983,-5.882999897003174 1.7610000371932983,28.042999267578125 1.7610000371932983,28.042999267578125 C1.7610000371932983,28.042999267578125 19.152999877929688,-5.882999897003174 19.152999877929688,-5.882999897003174 C19.152999877929688,-5.882999897003174 1.7610000371932983,-5.882999897003174 1.7610000371932983,-5.882999897003174z"></path></g></g></g><g mask="url(#__lottie_element_11)" style="display: block;"><g transform="matrix(1,0,0,1,77.4990005493164,77.4990005493164)" opacity="1"><g opacity="1" transform="matrix(2,0,0,2,0,0)"><path fill="rgb(255,255,255)" fill-opacity="1" d=" M-19.23900032043457,5.796999931335449 C-19.23900032043457,5.796999931335449 -1.8040000200271606,5.796999931335449 -1.8040000200271606,5.796999931335449 C-1.8040000200271606,5.796999931335449 -1.8040000200271606,-28.128000259399414 -1.8040000200271606,-28.128000259399414 C-1.8040000200271606,-28.128000259399414 -19.23900032043457,5.796999931335449 -19.23900032043457,5.796999931335449z"></path></g></g></g></g></g></g></svg>