<svg xmlns="http://www.w3.org/2000/svg" viewBox="0 0 812 812.02" fill="#101517"><title>wordpressdotcom-mark-black</title><g id="Layer_2" data-name="Layer 2"><g id="Black_W" data-name="Black W"><path d="M406,0C182.13,0,0,182.13,0,406S182.13,812,406,812,812,629.88,812,406,629.86,0,406,0ZM41,406A363.54,363.54,0,0,1,72.59,257.43L246.71,734.51C124.93,675.35,41,550.48,41,406ZM406,771.06a365.51,365.51,0,0,1-103.12-14.87L412.41,437.92,524.6,745.33a34.54,34.54,0,0,0,2.62,5A364.46,364.46,0,0,1,406,771.06Zm50.3-536.22c22-1.15,41.78-3.46,41.78-3.46,19.67-2.33,17.35-31.24-2.32-30.08,0,0-59.13,4.64-97.3,4.64-35.87,0-96.13-4.64-96.13-4.64-19.69-1.16-22,28.91-2.32,30.08,0,0,18.62,2.31,38.29,3.46l56.86,155.82-79.9,239.58L182.35,234.84c22-1.15,41.77-3.46,41.77-3.46,19.67-2.33,17.34-31.24-2.33-30.08,0,0-59.12,4.64-97.28,4.64-6.85,0-14.93-.18-23.51-.45C166.28,106.4,278.47,41,406,41a363.61,363.61,0,0,1,246.49,95.84c-1.56-.11-3.1-.3-4.72-.3-35.86,0-61.3,31.23-61.3,64.79,0,30.08,17.35,55.52,35.86,85.61,13.87,24.31,30.09,55.54,30.09,100.66q0,46.89-27.78,118L588.22,627.24ZM589.52,721.5,701,399.15c20.84-52.08,27.77-93.72,27.77-130.74a279.86,279.86,0,0,0-2.46-37.54A363.27,363.27,0,0,1,771,406C771,540.65,698,658.23,589.52,721.5Z"/></g></g></svg>